<svg width="10" height="15" viewBox="0 0 10 15" fill="none" xmlns="http://www.w3.org/2000/svg">
<g clip-path="url(#clip0_299_12742)">
<path d="M0.887891 8.50858L8.68703 14.9425C8.82752 15.0584 9.02315 15.0214 9.12399 14.86L9.92427 13.5786C10.0251 13.4171 9.99297 13.1923 9.85248 13.0764L2.05335 6.64245C1.91286 6.52656 1.71722 6.5635 1.61638 6.72496L0.8161 8.00637C0.715259 8.16784 0.747401 8.39269 0.887891 8.50858Z" fill="#35AFAC"/>
<path d="M8.70684 0.0886622L0.9077 6.52257C0.76721 6.63847 0.735068 6.86332 0.835909 7.02478L1.63619 8.30619C1.73703 8.46766 1.93267 8.5046 2.07315 8.3887L9.87229 1.95479C10.0128 1.8389 10.0449 1.61405 9.94408 1.45258L9.1438 0.171173C9.04296 0.00970634 8.84733 -0.027235 8.70684 0.0886622Z" fill="#35AFAC"/>
<path d="M0.596185 8.23985L1.87534 9.29651C1.90958 9.28351 1.93933 9.25832 1.96029 9.22459C1.98125 9.19087 1.99233 9.15036 1.99192 9.10891V5.91596C1.99255 5.86963 1.97884 5.82454 1.95321 5.78877C1.92758 5.753 1.89171 5.72887 1.85202 5.7207L0.812716 6.58211L0.123173 7.23678C0.0869842 7.27052 0.0578037 7.31313 0.0377605 7.36148C0.0177173 7.40983 0.00732422 7.46271 0.00732422 7.51626C0.00732422 7.56982 0.0177173 7.6227 0.0377605 7.67105C0.0578037 7.7194 0.0869842 7.76201 0.123173 7.79575L0.596185 8.23985Z" fill="#35AFAC"/>
</g>
<defs>
<clipPath id="clip0_299_12742">
<rect width="10" height="15" fill="white"/>
</clipPath>
</defs>
</svg>
