<svg width="10" height="15" viewBox="0 0 10 15" fill="none" xmlns="http://www.w3.org/2000/svg">
<g clip-path="url(#clip0_299_12734)">
<path d="M9.11211 8.50858L1.31297 14.9425C1.17248 15.0584 0.976846 15.0214 0.876005 14.86L0.0757272 13.5786C-0.0251133 13.4171 0.00702884 13.1923 0.147518 13.0764L7.94665 6.64245C8.08714 6.52656 8.28278 6.5635 8.38362 6.72496L9.1839 8.00637C9.28474 8.16784 9.2526 8.39269 9.11211 8.50858Z" fill="#B7BFBF"/>
<path d="M1.29316 0.0886622L9.0923 6.52257C9.23279 6.63847 9.26493 6.86332 9.16409 7.02478L8.36381 8.30619C8.26297 8.46766 8.06733 8.5046 7.92685 8.3887L0.12771 1.95479C-0.0127801 1.8389 -0.0449222 1.61405 0.0559183 1.45258L0.856196 0.171173C0.957037 0.00970634 1.15267 -0.027235 1.29316 0.0886622Z" fill="#B7BFBF"/>
<path d="M9.40381 8.23985L8.12466 9.29651C8.09042 9.28351 8.06067 9.25832 8.03971 9.22459C8.01875 9.19087 8.00767 9.15036 8.00808 9.10891V5.91596C8.00745 5.86963 8.02116 5.82454 8.04679 5.78877C8.07242 5.753 8.10829 5.72887 8.14798 5.7207L9.18728 6.58211L9.87683 7.23678C9.91302 7.27052 9.9422 7.31313 9.96224 7.36148C9.98228 7.40983 9.99268 7.46271 9.99268 7.51626C9.99268 7.56982 9.98228 7.6227 9.96224 7.67105C9.9422 7.7194 9.91302 7.76201 9.87683 7.79575L9.40381 8.23985Z" fill="#B7BFBF"/>
</g>
<defs>
<clipPath id="clip0_299_12734">
<rect width="10" height="15" fill="white" transform="matrix(-1 0 0 1 10 0)"/>
</clipPath>
</defs>
</svg>
