<svg width="21" height="21" viewBox="0 0 21 21" fill="none" xmlns="http://www.w3.org/2000/svg">
<path d="M10.9961 11.087C9.95774 11.087 8.94271 10.7912 8.07935 10.237C7.216 9.68284 6.54309 8.89515 6.14573 7.97357C5.74837 7.05199 5.6444 6.03791 5.84697 5.05956C6.04955 4.08122 6.54956 3.18256 7.28379 2.47721C8.01801 1.77186 8.95347 1.29152 9.97188 1.09691C10.9903 0.902308 12.0459 1.00218 13.0052 1.38391C13.9645 1.76564 14.7844 2.41209 15.3613 3.24149C15.9382 4.07089 16.2461 5.04599 16.2461 6.0435C16.2461 7.38112 15.693 8.66396 14.7084 9.6098C13.7238 10.5556 12.3885 11.087 10.9961 11.087ZM10.9961 2.68117C10.3039 2.68117 9.62716 2.87836 9.05159 3.24782C8.47602 3.61728 8.02742 4.14241 7.76251 4.75679C7.49761 5.37118 7.4283 6.04724 7.56335 6.69946C7.69839 7.35169 8.03173 7.9508 8.52121 8.42104C9.0107 8.89127 9.63435 9.2115 10.3133 9.34124C10.9922 9.47097 11.6959 9.40438 12.3355 9.14989C12.975 8.89541 13.5217 8.46445 13.9062 7.91152C14.2908 7.35858 14.4961 6.70851 14.4961 6.0435C14.4961 5.15175 14.1273 4.29653 13.471 3.66597C12.8146 3.03541 11.9243 2.68117 10.9961 2.68117Z" fill="#35AFAC"/>
<path d="M5.74609 20.0036V16.4395C5.74609 15.1019 6.29922 13.8191 7.28379 12.8732C8.26835 11.9274 9.60371 11.396 10.9961 11.396C12.3885 11.396 13.7238 11.9274 14.7084 12.8732C15.693 13.8191 16.2461 15.1019 16.2461 16.4395V19.9924H17.9961V16.4395C17.9961 14.656 17.2586 12.9456 15.9458 11.6845C14.6331 10.4233 12.8526 9.71484 10.9961 9.71484C9.13958 9.71484 7.3591 10.4233 6.04634 11.6845C4.73359 12.9456 3.99609 14.656 3.99609 16.4395V19.9924L5.74609 20.0036Z" fill="#35AFAC"/>
</svg>
