<svg width="60" height="39" viewBox="0 0 60 39" fill="none" xmlns="http://www.w3.org/2000/svg">
<path d="M35.0091 0.286174L26.5758 9.06522C26.4239 9.22336 26.4211 9.46718 26.5695 9.60979L27.7471 10.7416C27.8955 10.8842 28.1389 10.8716 28.2908 10.7135L36.724 1.93444C36.876 1.7763 36.8788 1.53249 36.7304 1.38987L35.5528 0.258063C35.4044 0.115447 35.161 0.128033 35.0091 0.286174Z" fill="#35AFAC"/>
<path d="M23.1532 6.3655L27.8564 10.8536C27.9411 10.9345 28.1249 10.8793 28.267 10.7303L29.3943 9.54838C29.5363 9.39945 29.5828 9.21318 29.4981 9.13233L24.7949 4.64421C24.7102 4.56337 24.5263 4.61856 24.3843 4.7675L23.257 5.94944C23.1149 6.09838 23.0684 6.28465 23.1532 6.3655Z" fill="#35AFAC"/>
<path d="M6.57736 35C6.43336 35 6.35536 34.934 6.34336 34.802L6.05536 33.074C6.05536 33.014 6.01936 32.984 5.94736 32.984H3.66136C3.58936 32.984 3.55336 33.014 3.55336 33.074L3.26536 34.802C3.25336 34.934 3.17536 35 3.03136 35H0.925359C0.769359 35 0.709359 34.922 0.745359 34.766L3.39136 22.598C3.41536 22.466 3.49336 22.4 3.62536 22.4H6.05536C6.18736 22.4 6.26536 22.466 6.28936 22.598L8.91736 34.766L8.93536 34.838C8.93536 34.946 8.86936 35 8.73736 35H6.57736ZM3.91336 30.932C3.91336 30.992 3.93736 31.022 3.98536 31.022H5.60536C5.66536 31.022 5.68936 30.992 5.67736 30.932L4.83136 26.018C4.81936 25.982 4.80136 25.964 4.77736 25.964C4.75336 25.964 4.73536 25.982 4.72336 26.018L3.91336 30.932ZM15.081 25.604C15.909 25.604 16.533 25.874 16.953 26.414C17.385 26.942 17.601 27.674 17.601 28.61V32.12C17.601 33.092 17.385 33.842 16.953 34.37C16.521 34.886 15.897 35.144 15.081 35.144C14.817 35.144 14.541 35.096 14.253 35C13.965 34.892 13.701 34.706 13.461 34.442C13.437 34.406 13.413 34.394 13.389 34.406C13.365 34.418 13.353 34.442 13.353 34.478V38.132C13.353 38.192 13.329 38.24 13.281 38.276C13.245 38.324 13.197 38.348 13.137 38.348H11.031C10.971 38.348 10.917 38.324 10.869 38.276C10.833 38.24 10.815 38.192 10.815 38.132V25.964C10.815 25.904 10.833 25.856 10.869 25.82C10.917 25.772 10.971 25.748 11.031 25.748H13.137C13.197 25.748 13.245 25.772 13.281 25.82C13.329 25.856 13.353 25.904 13.353 25.964V26.252C13.353 26.276 13.365 26.288 13.389 26.288C13.437 26.288 13.485 26.258 13.533 26.198C13.941 25.802 14.457 25.604 15.081 25.604ZM15.063 28.808C15.063 28.496 14.985 28.244 14.829 28.052C14.673 27.86 14.463 27.764 14.199 27.764C13.947 27.764 13.743 27.86 13.587 28.052C13.431 28.244 13.353 28.496 13.353 28.808V31.922C13.353 32.234 13.431 32.486 13.587 32.678C13.743 32.87 13.947 32.966 14.199 32.966C14.463 32.966 14.673 32.87 14.829 32.678C14.985 32.486 15.063 32.234 15.063 31.922V28.808ZM24.0493 25.604C24.8773 25.604 25.5013 25.874 25.9213 26.414C26.3533 26.942 26.5693 27.674 26.5693 28.61V32.12C26.5693 33.092 26.3533 33.842 25.9213 34.37C25.4893 34.886 24.8653 35.144 24.0493 35.144C23.7853 35.144 23.5093 35.096 23.2213 35C22.9333 34.892 22.6693 34.706 22.4293 34.442C22.4053 34.406 22.3813 34.394 22.3573 34.406C22.3333 34.418 22.3213 34.442 22.3213 34.478V38.132C22.3213 38.192 22.2973 38.24 22.2493 38.276C22.2133 38.324 22.1653 38.348 22.1053 38.348H19.9993C19.9393 38.348 19.8853 38.324 19.8373 38.276C19.8013 38.24 19.7833 38.192 19.7833 38.132V25.964C19.7833 25.904 19.8013 25.856 19.8373 25.82C19.8853 25.772 19.9393 25.748 19.9993 25.748H22.1053C22.1653 25.748 22.2133 25.772 22.2493 25.82C22.2973 25.856 22.3213 25.904 22.3213 25.964V26.252C22.3213 26.276 22.3333 26.288 22.3573 26.288C22.4053 26.288 22.4533 26.258 22.5013 26.198C22.9093 25.802 23.4253 25.604 24.0493 25.604ZM24.0313 28.808C24.0313 28.496 23.9533 28.244 23.7973 28.052C23.6413 27.86 23.4313 27.764 23.1673 27.764C22.9153 27.764 22.7113 27.86 22.5553 28.052C22.3993 28.244 22.3213 28.496 22.3213 28.808V31.922C22.3213 32.234 22.3993 32.486 22.5553 32.678C22.7113 32.87 22.9153 32.966 23.1673 32.966C23.4313 32.966 23.6413 32.87 23.7973 32.678C23.9533 32.486 24.0313 32.234 24.0313 31.922V28.808ZM32.8377 25.64C33.1617 25.64 33.4137 25.7 33.5937 25.82C33.6897 25.88 33.7257 25.97 33.7017 26.09L33.3597 28.196C33.3477 28.328 33.2637 28.376 33.1077 28.34C32.9757 28.292 32.8137 28.268 32.6217 28.268C32.4417 28.268 32.2857 28.292 32.1537 28.34C31.8777 28.388 31.6557 28.556 31.4877 28.844C31.3197 29.12 31.2357 29.444 31.2357 29.816V34.766C31.2357 34.826 31.2117 34.88 31.1637 34.928C31.1277 34.964 31.0797 34.982 31.0197 34.982H28.9137C28.8537 34.982 28.7997 34.964 28.7517 34.928C28.7157 34.88 28.6977 34.826 28.6977 34.766V25.964C28.6977 25.904 28.7157 25.856 28.7517 25.82C28.7997 25.772 28.8537 25.748 28.9137 25.748H31.0197C31.0797 25.748 31.1277 25.772 31.1637 25.82C31.2117 25.856 31.2357 25.904 31.2357 25.964V26.666C31.2357 26.714 31.2417 26.744 31.2537 26.756C31.2777 26.756 31.3017 26.738 31.3257 26.702C31.6497 25.994 32.1537 25.64 32.8377 25.64ZM38.6046 35.144C37.5366 35.144 36.6966 34.874 36.0846 34.334C35.4846 33.794 35.1846 33.056 35.1846 32.12V28.628C35.1846 27.716 35.4906 26.984 36.1026 26.432C36.7146 25.88 37.5486 25.604 38.6046 25.604C39.6726 25.604 40.5126 25.88 41.1246 26.432C41.7366 26.984 42.0426 27.716 42.0426 28.628V32.12C42.0426 33.056 41.7366 33.794 41.1246 34.334C40.5246 34.874 39.6846 35.144 38.6046 35.144ZM38.6046 32.948C38.8686 32.948 39.0846 32.852 39.2526 32.66C39.4206 32.468 39.5046 32.222 39.5046 31.922V28.808C39.5046 28.508 39.4206 28.262 39.2526 28.07C39.0846 27.878 38.8686 27.782 38.6046 27.782C38.3406 27.782 38.1246 27.878 37.9566 28.07C37.8006 28.262 37.7226 28.508 37.7226 28.808V31.922C37.7226 32.222 37.8006 32.468 37.9566 32.66C38.1246 32.852 38.3406 32.948 38.6046 32.948ZM45.9262 35C45.7942 35 45.7102 34.94 45.6742 34.82L43.4962 25.964V25.892C43.4962 25.784 43.5622 25.73 43.6942 25.73H46.0162C46.1602 25.73 46.2382 25.796 46.2502 25.928L47.0782 30.878C47.0902 30.914 47.1082 30.932 47.1322 30.932C47.1562 30.932 47.1742 30.914 47.1862 30.878L47.9962 25.928C48.0082 25.796 48.0862 25.73 48.2302 25.73L50.5522 25.766C50.7202 25.766 50.7862 25.844 50.7502 26L48.5902 34.82C48.5542 34.94 48.4702 35 48.3382 35H45.9262ZM59.0288 30.95C59.0288 31.01 59.0048 31.064 58.9568 31.112C58.9208 31.148 58.8728 31.166 58.8128 31.166H54.8528C54.7928 31.166 54.7628 31.196 54.7628 31.256V31.922C54.7628 32.222 54.8408 32.474 54.9968 32.678C55.1648 32.87 55.3748 32.966 55.6268 32.966C55.8548 32.966 56.0408 32.894 56.1848 32.75C56.3288 32.594 56.4248 32.402 56.4728 32.174C56.5088 32.054 56.5868 31.994 56.7068 31.994L58.7768 32.102C58.8368 32.102 58.8848 32.126 58.9208 32.174C58.9688 32.21 58.9868 32.264 58.9748 32.336C58.8908 33.26 58.5668 33.962 58.0028 34.442C57.4508 34.91 56.6588 35.144 55.6268 35.144C54.5588 35.144 53.7248 34.88 53.1248 34.352C52.5248 33.812 52.2248 33.068 52.2248 32.12V28.628C52.2248 27.716 52.5248 26.984 53.1248 26.432C53.7368 25.88 54.5708 25.604 55.6268 25.604C56.6828 25.604 57.5108 25.88 58.1108 26.432C58.7228 26.984 59.0288 27.716 59.0288 28.628V30.95ZM55.6268 27.782C55.3748 27.782 55.1648 27.878 54.9968 28.07C54.8408 28.262 54.7628 28.508 54.7628 28.808V29.51C54.7628 29.57 54.7928 29.6 54.8528 29.6H56.4008C56.4608 29.6 56.4908 29.57 56.4908 29.51V28.808C56.4908 28.508 56.4068 28.262 56.2388 28.07C56.0828 27.878 55.8788 27.782 55.6268 27.782Z" fill="#35AFAC"/>
</svg>
