<svg width="21" height="21" viewBox="0 0 21 21" fill="none" xmlns="http://www.w3.org/2000/svg">
<g clip-path="url(#clip0_977_11055)">
<path d="M14.932 10.8145H4.96796C4.81846 10.8145 4.69727 10.94 4.69727 11.0948V12.3237C4.69727 12.4785 4.81846 12.604 4.96796 12.604H14.932C15.0815 12.604 15.2027 12.4785 15.2027 12.3237V11.0948C15.2027 10.94 15.0815 10.8145 14.932 10.8145Z" fill="#35AFAC"/>
<path d="M14.932 14.4863H4.96796C4.81846 14.4863 4.69727 14.6119 4.69727 14.7667V15.9955C4.69727 16.1504 4.81846 16.2759 4.96796 16.2759H14.932C15.0815 16.2759 15.2027 16.1504 15.2027 15.9955V14.7667C15.2027 14.6119 15.0815 14.4863 14.932 14.4863Z" fill="#35AFAC"/>
<path d="M12.3259 4.60938H7.5743C7.48365 4.60938 7.41016 4.68549 7.41016 4.77938V6.22893C7.41016 6.32282 7.48365 6.39894 7.5743 6.39894H12.3259C12.4166 6.39894 12.4901 6.32282 12.4901 6.22893V4.77938C12.4901 4.68549 12.4166 4.60938 12.3259 4.60938Z" fill="#35AFAC"/>
<path d="M4.82712 2.06628L5.09492 2.36454C5.84837 3.2256 6.27261 4.34183 6.28799 5.50379C6.30336 6.66575 5.90883 7.79359 5.17844 8.67572L4.95958 8.93819C4.9263 8.97703 4.87974 9.00091 4.82975 9.00481C4.77976 9.00871 4.73025 8.9923 4.69174 8.95906L3.82781 8.18359C3.78947 8.14903 3.76588 8.10019 3.76211 8.0477C3.75833 7.9952 3.7747 7.94329 3.80767 7.90323L4.02653 7.64076C4.51403 7.05431 4.77806 6.30372 4.76904 5.52993C4.76003 4.75613 4.47858 4.01237 3.97756 3.43827L3.79614 3.2265C3.76517 3.1909 3.74805 3.14468 3.74805 3.09676C3.74805 3.04884 3.76517 3.00262 3.79614 2.96702L4.54775 2.07224C4.56515 2.05188 4.58643 2.03548 4.61026 2.02406C4.63408 2.01264 4.65994 2.00646 4.68619 2.0059C4.71243 2.00534 4.7385 2.01041 4.76275 2.0208C4.78701 2.03119 4.80892 2.04668 4.82712 2.06628Z" fill="#35AFAC"/>
<path d="M18.3151 4.60938H16.3223C16.2971 4.60937 16.2722 4.61456 16.2489 4.62464C16.2257 4.63472 16.2046 4.64949 16.1869 4.66808C16.1692 4.68668 16.1553 4.70874 16.1459 4.73296C16.1365 4.75719 16.1319 4.78311 16.1323 4.80921V6.20208C16.1319 6.22805 16.1365 6.25382 16.146 6.27789C16.1554 6.30195 16.1694 6.32381 16.1871 6.34217C16.2048 6.36053 16.2259 6.37502 16.2491 6.38477C16.2724 6.39452 16.2973 6.39934 16.3223 6.39894H17.9091C18.0033 6.39972 18.0934 6.43903 18.1597 6.50831C18.2261 6.57758 18.2633 6.6712 18.2633 6.76878V17.8432C18.2633 17.9405 18.226 18.0338 18.1596 18.1026C18.0931 18.1714 18.003 18.21 17.9091 18.21H2.07035C1.97641 18.21 1.88631 18.1714 1.81988 18.1026C1.75345 18.0338 1.71614 17.9405 1.71614 17.8432V6.77176C1.71614 6.67419 1.75336 6.58057 1.81971 6.51129C1.88605 6.44202 1.97614 6.40271 2.07035 6.40192H3.34322C3.36842 6.40232 3.39344 6.39751 3.41683 6.38779C3.44022 6.37808 3.46152 6.36364 3.47947 6.34532C3.49743 6.32701 3.51168 6.30517 3.52141 6.28109C3.53114 6.25701 3.53618 6.23117 3.53618 6.20507V4.81219C3.53618 4.78595 3.53118 4.75997 3.52148 4.73572C3.51179 4.71148 3.49757 4.68944 3.47965 4.67089C3.46173 4.65233 3.44045 4.63761 3.41704 4.62757C3.39363 4.61753 3.36856 4.61236 3.34322 4.61236H1.66717C1.2219 4.61236 0.794899 4.79556 0.480043 5.12165C0.165187 5.44775 -0.0117187 5.89004 -0.0117188 6.35121V18.2637C-0.0117187 18.7249 0.165187 19.1672 0.480043 19.4933C0.794899 19.8194 1.2219 20.0026 1.66717 20.0026H18.3151C18.7599 20.0018 19.1862 19.8182 19.5004 19.4922C19.8147 19.1662 19.9912 18.7244 19.9912 18.2637V6.34823C19.9912 5.88757 19.8147 5.44574 19.5004 5.11972C19.1862 4.79371 18.7599 4.61017 18.3151 4.60938Z" fill="#35AFAC"/>
<path d="M13.7304 2.06628L13.9954 2.36454C14.7492 3.22524 15.1739 4.34126 15.1898 5.50322C15.2057 6.66518 14.8118 7.79323 14.0818 8.67572L13.8629 8.93819C13.8296 8.97703 13.7831 9.00091 13.7331 9.00481C13.6831 9.00871 13.6336 8.9923 13.5951 8.95906L12.7311 8.18359C12.6928 8.14903 12.6692 8.10019 12.6654 8.0477C12.6616 7.9952 12.678 7.94329 12.711 7.90323L12.9299 7.64076C13.4174 7.05431 13.6814 6.30372 13.6724 5.52993C13.6634 4.75613 13.3819 4.01237 12.8809 3.43827L12.6966 3.2265C12.6668 3.19033 12.6504 3.14432 12.6504 3.09676C12.6504 3.0492 12.6668 3.00319 12.6966 2.96702L13.4511 2.07224C13.4685 2.05188 13.4898 2.03548 13.5136 2.02406C13.5374 2.01264 13.5632 2.00646 13.5895 2.0059C13.6157 2.00534 13.6418 2.01041 13.666 2.0208C13.6903 2.03119 13.7122 2.04668 13.7304 2.06628Z" fill="#35AFAC"/>
</g>
<defs>
<clipPath id="clip0_977_11055">
<rect width="21" height="21" fill="white"/>
</clipPath>
</defs>
</svg>
