<svg width="36" height="32" viewBox="0 0 36 32" fill="none" xmlns="http://www.w3.org/2000/svg">
<g clip-path="url(#clip0_601_24146)">
<path d="M26.8756 15.668H8.94038C8.67128 15.668 8.45312 15.8911 8.45312 16.1664V18.351C8.45312 18.6263 8.67128 18.8494 8.94038 18.8494H26.8756C27.1447 18.8494 27.3628 18.6263 27.3628 18.351V16.1664C27.3628 15.8911 27.1447 15.668 26.8756 15.668Z" fill="#35AFAC"/>
<path d="M26.8756 22.1953H8.94038C8.67128 22.1953 8.45312 22.4185 8.45312 22.6937V24.8783C8.45312 25.1536 8.67128 25.3768 8.94038 25.3768H26.8756C27.1447 25.3768 27.3628 25.1536 27.3628 24.8783V22.6937C27.3628 22.4185 27.1447 22.1953 26.8756 22.1953Z" fill="#35AFAC"/>
<path d="M22.1843 4.63867H13.6314C13.4682 4.63867 13.3359 4.77399 13.3359 4.94091V7.51788C13.3359 7.6848 13.4682 7.82011 13.6314 7.82011H22.1843C22.3475 7.82011 22.4798 7.6848 22.4798 7.51788V4.94091C22.4798 4.77399 22.3475 4.63867 22.1843 4.63867Z" fill="#35AFAC"/>
<path d="M8.68842 0.117173L9.17046 0.647413C10.5267 2.1782 11.2903 4.16259 11.318 6.2283C11.3457 8.29401 10.6355 10.2991 9.3208 11.8673L8.92684 12.3339C8.86695 12.4029 8.78315 12.4454 8.69317 12.4523C8.60319 12.4593 8.51407 12.4301 8.44474 12.371L6.88967 10.9924C6.82066 10.931 6.7782 10.8441 6.7714 10.7508C6.76461 10.6575 6.79406 10.5652 6.85341 10.494L7.24737 10.0274C8.12486 8.9848 8.60011 7.65041 8.58389 6.27478C8.56766 4.89914 8.06105 3.57689 7.15922 2.55628L6.83266 2.1798C6.77692 2.1165 6.74609 2.03433 6.74609 1.94915C6.74609 1.86396 6.77692 1.78179 6.83266 1.71849L8.18556 0.127772C8.21688 0.0915809 8.25519 0.0624215 8.29807 0.0421225C8.34095 0.0218234 8.38751 0.0108364 8.43475 0.00984008C8.48198 0.00884379 8.5289 0.0178556 8.57256 0.0363294C8.61622 0.0548033 8.65567 0.082333 8.68842 0.117173Z" fill="#35AFAC"/>
<path d="M32.9669 4.63867H29.3798C29.3344 4.63867 29.2895 4.64789 29.2477 4.66581C29.2058 4.68373 29.1679 4.70998 29.1361 4.74304C29.1042 4.7761 29.0791 4.81531 29.0622 4.85839C29.0453 4.90146 29.037 4.94754 29.0377 4.99394V7.47015C29.037 7.51631 29.0454 7.56213 29.0623 7.60491C29.0793 7.6477 29.1045 7.68656 29.1364 7.7192C29.1683 7.75185 29.2062 7.7776 29.2481 7.79493C29.2899 7.81227 29.3347 7.82083 29.3798 7.82011H32.236C32.4055 7.82151 32.5677 7.8914 32.6871 8.01455C32.8065 8.13771 32.8735 8.30414 32.8735 8.47761V28.1654C32.8735 28.3384 32.8064 28.5043 32.6868 28.6266C32.5672 28.7489 32.4051 28.8176 32.236 28.8176H3.72624C3.55714 28.8176 3.39496 28.7489 3.27539 28.6266C3.15583 28.5043 3.08867 28.3384 3.08867 28.1654V8.48291C3.08866 8.30945 3.15566 8.14301 3.27508 8.01986C3.3945 7.89671 3.55667 7.82682 3.72624 7.82542H6.01741C6.06277 7.82612 6.1078 7.81758 6.14991 7.80031C6.19201 7.78304 6.23034 7.75737 6.26266 7.7248C6.29498 7.69224 6.32064 7.65342 6.33815 7.61061C6.35567 7.5678 6.36473 7.52187 6.36473 7.47546V4.99923C6.36473 4.95258 6.35573 4.90639 6.33828 4.86329C6.32083 4.82019 6.29523 4.78102 6.26298 4.74803C6.23073 4.71504 6.19242 4.68887 6.15029 4.67102C6.10815 4.65317 6.06301 4.64398 6.01741 4.64398H3.00052C2.19903 4.64398 1.43043 4.96966 0.863686 5.54939C0.296946 6.12912 -0.0214844 6.91541 -0.0214844 7.73527V28.9131C-0.0214844 29.7329 0.296946 30.5192 0.863686 31.099C1.43043 31.6787 2.19903 32.0044 3.00052 32.0044H32.9669C33.7675 32.003 34.5348 31.6767 35.1004 31.0971C35.666 30.5175 35.9837 29.732 35.9837 28.9131V7.72997C35.9837 6.91102 35.666 6.12554 35.1004 5.54596C34.5348 4.96638 33.7675 4.64008 32.9669 4.63867Z" fill="#35AFAC"/>
<path d="M24.7155 0.117173L25.1924 0.647413C26.5494 2.17755 27.3139 4.16159 27.3425 6.2273C27.3711 8.29301 26.662 10.2984 25.348 11.8673L24.954 12.3339C24.8941 12.4029 24.8103 12.4454 24.7203 12.4523C24.6303 12.4593 24.5412 12.4301 24.4719 12.371L22.9168 10.9924C22.8478 10.931 22.8053 10.8441 22.7985 10.7508C22.7917 10.6575 22.8212 10.5652 22.8806 10.494L23.2745 10.0274C24.152 8.9848 24.6273 7.65041 24.611 6.27478C24.5948 4.89914 24.0882 3.57689 23.1864 2.55628L22.8546 2.1798C22.801 2.11549 22.7715 2.0337 22.7715 1.94915C22.7715 1.86459 22.801 1.7828 22.8546 1.71849L24.2127 0.127772C24.244 0.0915809 24.2824 0.0624215 24.3252 0.0421225C24.3681 0.0218234 24.4146 0.0108364 24.4618 0.00984008C24.5091 0.00884379 24.556 0.0178556 24.5997 0.0363294C24.6433 0.0548033 24.6828 0.082333 24.7155 0.117173Z" fill="#35AFAC"/>
</g>
<defs>
<clipPath id="clip0_601_24146">
<rect width="36" height="32" fill="white"/>
</clipPath>
</defs>
</svg>
