<svg width="48" height="27" viewBox="0 0 48 27" fill="none" xmlns="http://www.w3.org/2000/svg">
<g clip-path="url(#clip0_970_11084)">
<mask id="path-1-inside-1_970_11084" fill="white">
<rect x="5" y="5.26172" width="38.0435" height="21.7391" rx="2.17391"/>
</mask>
<rect x="5" y="5.26172" width="38.0435" height="21.7391" rx="2.17391" stroke="#35AFAC" stroke-width="5.43478" mask="url(#path-1-inside-1_970_11084)"/>
<circle cx="24.0216" cy="16.13" r="4.61957" stroke="#35AFAC" stroke-width="2.71739"/>
<rect x="9.8916" y="10.1523" width="6.52174" height="2.17391" rx="0.543478" fill="#35AFAC"/>
<rect x="31.6309" y="19.9355" width="6.52174" height="2.17391" rx="0.543478" fill="#35AFAC"/>
<path d="M35.4591 15.0105L39.0134 11.4562L42.5677 15.0105C43.0983 15.5411 43.9586 15.5411 44.4892 15.0105L45.7273 13.7724C46.2579 13.2418 46.2579 12.3815 45.7273 11.8509L42.173 8.29663L45.7273 4.74232C46.2579 4.21171 46.2579 3.35143 45.7273 2.82083L44.4892 1.58274C43.9586 1.05213 43.0983 1.05213 42.5677 1.58274L39.0134 5.13705L35.4591 1.58274C34.9285 1.05213 34.0682 1.05213 33.5376 1.58274L32.2995 2.82083C31.7689 3.35143 31.7689 4.21171 32.2995 4.74232L35.8538 8.29663L32.2995 11.8509C31.7689 12.3815 31.7689 13.2418 32.2995 13.7724L33.5376 15.0105C34.0682 15.5411 34.9285 15.5411 35.4591 15.0105Z" fill="#35AFAC" stroke="#ECF2F2" stroke-width="1.63043"/>
</g>
<defs>
<clipPath id="clip0_970_11084">
<rect width="48" height="27" fill="white"/>
</clipPath>
</defs>
</svg>
