<svg width="39" height="35" viewBox="0 0 39 35" fill="none" xmlns="http://www.w3.org/2000/svg">
<g clip-path="url(#clip0_299_14445)">
<path d="M28.3591 20.4121C26.7813 20.4121 25.239 19.9521 23.9272 19.0904C22.6153 18.2286 21.5929 17.0037 20.9891 15.5706C20.3853 14.1375 20.2273 12.5606 20.5351 11.0393C20.8429 9.51793 21.6027 8.12049 22.7183 7.02366C23.834 5.92683 25.2554 5.17988 26.8028 4.87726C28.3503 4.57465 29.9542 4.72996 31.4119 5.32356C32.8695 5.91716 34.1154 6.92239 34.992 8.21213C35.8685 9.50186 36.3364 11.0182 36.3364 12.5693C36.3364 14.6494 35.4959 16.6442 33.9999 18.115C32.5039 19.5858 30.4748 20.4121 28.3591 20.4121ZM28.3591 7.34081C27.3073 7.34081 26.279 7.64746 25.4045 8.22198C24.5299 8.7965 23.8483 9.61308 23.4457 10.5685C23.0432 11.5239 22.9379 12.5751 23.1431 13.5894C23.3483 14.6036 23.8548 15.5352 24.5986 16.2664C25.3423 16.9977 26.29 17.4956 27.3216 17.6974C28.3532 17.8991 29.4225 17.7956 30.3943 17.3998C31.3661 17.0041 32.1967 16.334 32.781 15.4741C33.3654 14.6143 33.6773 13.6034 33.6773 12.5693C33.6773 11.1826 33.117 9.85274 32.1196 8.87221C31.1223 7.89167 29.7696 7.34081 28.3591 7.34081Z" fill="#35AFAC"/>
<path d="M20.3817 34.2766V28.7344C20.3817 26.6543 21.2222 24.6595 22.7182 23.1887C24.2143 21.7179 26.2433 20.8916 28.359 20.8916C30.4747 20.8916 32.5038 21.7179 33.9998 23.1887C35.4958 24.6595 36.3363 26.6543 36.3363 28.7344V34.2592H38.9954V28.7344C38.9954 25.961 37.8748 23.3012 35.8801 21.3401C33.8854 19.3791 31.18 18.2773 28.359 18.2773C25.5381 18.2773 22.8327 19.3791 20.838 21.3401C18.8433 23.3012 17.7227 25.961 17.7227 28.7344V34.2592L20.3817 34.2766Z" fill="#35AFAC"/>
</g>
<g clip-path="url(#clip1_299_14445)">
<path d="M10.6316 15.6855C9.05381 15.6855 7.51149 15.2256 6.19964 14.3638C4.88778 13.502 3.86531 12.2771 3.26153 10.8441C2.65775 9.41099 2.49978 7.83406 2.80758 6.31272C3.11539 4.79137 3.87515 3.39393 4.99079 2.2971C6.10643 1.20027 7.52785 0.453316 9.07529 0.150701C10.6227 -0.151914 12.2267 0.00339442 13.6843 0.596995C15.142 1.1906 16.3879 2.19583 17.2644 3.48556C18.141 4.7753 18.6088 6.29161 18.6088 7.84277C18.6088 9.9228 17.7684 11.9176 16.2723 13.3884C14.7763 14.8593 12.7473 15.6855 10.6316 15.6855ZM10.6316 2.61425C9.57973 2.61425 8.5515 2.9209 7.67693 3.49542C6.80236 4.06993 6.12073 4.88652 5.71821 5.8419C5.31569 6.79729 5.21037 7.84857 5.41558 8.8628C5.62078 9.87704 6.12728 10.8087 6.87104 11.5399C7.6148 12.2711 8.56242 12.7691 9.59405 12.9708C10.6257 13.1726 11.695 13.069 12.6668 12.6733C13.6385 12.2775 14.4691 11.6074 15.0535 10.7476C15.6379 9.88775 15.9497 8.87687 15.9497 7.84277C15.9497 6.45608 15.3894 5.12618 14.3921 4.14564C13.3947 3.16511 12.042 2.61425 10.6316 2.61425Z" fill="#35AFAC"/>
<path d="M2.65421 29.55V24.0078C2.65421 21.9278 3.49468 19.9329 4.99071 18.4621C6.48673 16.9913 8.51578 16.165 10.6315 16.165C12.7472 16.165 14.7762 16.9913 16.2723 18.4621C17.7683 19.9329 18.6088 21.9278 18.6088 24.0078V29.5326H19.2043L21.2678 24.0078C21.2678 21.2344 20.1472 18.5747 18.1525 16.6136C16.1578 14.6525 13.4524 13.5508 10.6315 13.5508C7.81054 13.5508 5.10513 14.6525 3.11043 16.6136C1.11572 18.5747 -0.00488281 21.2344 -0.00488281 24.0078V29.5326L2.65421 29.55Z" fill="#35AFAC"/>
</g>
<defs>
<clipPath id="clip0_299_14445">
<rect width="21.2727" height="29.5455" fill="white" transform="translate(17.7275 4.72656)"/>
</clipPath>
<clipPath id="clip1_299_14445">
<rect width="21.2727" height="29.5455" fill="white"/>
</clipPath>
</defs>
</svg>
