<svg width="36" height="32" viewBox="0 0 36 32" fill="none" xmlns="http://www.w3.org/2000/svg">
<g clip-path="url(#clip0_299_14462)">
<path d="M26.8766 15.668H8.94136C8.67225 15.668 8.4541 15.8911 8.4541 16.1664V18.351C8.4541 18.6263 8.67225 18.8494 8.94136 18.8494H26.8766C27.1457 18.8494 27.3638 18.6263 27.3638 18.351V16.1664C27.3638 15.8911 27.1457 15.668 26.8766 15.668Z" fill="#35AFAC"/>
<path d="M26.8766 22.1953H8.94136C8.67225 22.1953 8.4541 22.4185 8.4541 22.6937V24.8783C8.4541 25.1536 8.67225 25.3768 8.94136 25.3768H26.8766C27.1457 25.3768 27.3638 25.1536 27.3638 24.8783V22.6937C27.3638 22.4185 27.1457 22.1953 26.8766 22.1953Z" fill="#35AFAC"/>
<path d="M22.1853 4.63867H13.6324C13.4692 4.63867 13.3369 4.77399 13.3369 4.94091V7.51788C13.3369 7.6848 13.4692 7.82011 13.6324 7.82011H22.1853C22.3485 7.82011 22.4808 7.6848 22.4808 7.51788V4.94091C22.4808 4.77399 22.3485 4.63867 22.1853 4.63867Z" fill="#35AFAC"/>
<path d="M8.68744 0.117173L9.16948 0.647413C10.5257 2.1782 11.2893 4.16259 11.317 6.2283C11.3447 8.29401 10.6345 10.2991 9.31983 11.8673L8.92587 12.3339C8.86597 12.4029 8.78217 12.4454 8.69219 12.4523C8.60221 12.4593 8.51309 12.4301 8.44377 12.371L6.88869 10.9924C6.81968 10.931 6.77722 10.8441 6.77043 10.7508C6.76363 10.6575 6.79309 10.5652 6.85243 10.494L7.24639 10.0274C8.12388 8.9848 8.59914 7.65041 8.58291 6.27478C8.56669 4.89914 8.06007 3.57689 7.15825 2.55628L6.83168 2.1798C6.77595 2.1165 6.74512 2.03433 6.74512 1.94915C6.74512 1.86396 6.77595 1.78179 6.83168 1.71849L8.18459 0.127772C8.2159 0.0915809 8.25421 0.0624215 8.29709 0.0421225C8.33997 0.0218234 8.38653 0.0108364 8.43377 0.00984008C8.48101 0.00884379 8.52793 0.0178556 8.57158 0.0363294C8.61524 0.0548033 8.6547 0.082333 8.68744 0.117173Z" fill="#35AFAC"/>
<path d="M32.9678 4.63867H29.3808C29.3354 4.63867 29.2905 4.64789 29.2487 4.66581C29.2068 4.68373 29.1689 4.70998 29.137 4.74304C29.1052 4.7761 29.0801 4.81531 29.0632 4.85839C29.0463 4.90146 29.038 4.94754 29.0387 4.99394V7.47015C29.038 7.51631 29.0464 7.56213 29.0633 7.60491C29.0803 7.6477 29.1054 7.68656 29.1374 7.7192C29.1693 7.75185 29.2072 7.7776 29.249 7.79493C29.2909 7.81227 29.3357 7.82083 29.3808 7.82011H32.2369C32.4065 7.82151 32.5687 7.8914 32.6881 8.01455C32.8075 8.13771 32.8745 8.30414 32.8745 8.47761V28.1654C32.8745 28.3384 32.8073 28.5043 32.6878 28.6266C32.5682 28.7489 32.406 28.8176 32.2369 28.8176H3.72721C3.55812 28.8176 3.39594 28.7489 3.27637 28.6266C3.1568 28.5043 3.08964 28.3384 3.08964 28.1654V8.48291C3.08964 8.30945 3.15663 8.14301 3.27606 8.01986C3.39548 7.89671 3.55764 7.82682 3.72721 7.82542H6.01838C6.06374 7.82612 6.10877 7.81758 6.15088 7.80031C6.19299 7.78304 6.23132 7.75737 6.26364 7.7248C6.29596 7.69224 6.32161 7.65342 6.33913 7.61061C6.35665 7.5678 6.36571 7.52187 6.3657 7.47546V4.99923C6.3657 4.95258 6.35671 4.90639 6.33926 4.86329C6.3218 4.82019 6.29621 4.78102 6.26396 4.74803C6.23171 4.71504 6.1934 4.68887 6.15126 4.67102C6.10913 4.65317 6.06399 4.64398 6.01838 4.64398H3.0015C2.20001 4.64398 1.4314 4.96966 0.864663 5.54939C0.297922 6.12912 -0.0205078 6.91541 -0.0205078 7.73527V28.9131C-0.0205078 29.7329 0.297922 30.5192 0.864663 31.099C1.4314 31.6787 2.20001 32.0044 3.0015 32.0044H32.9678C33.7684 32.003 34.5358 31.6767 35.1014 31.0971C35.667 30.5175 35.9847 29.732 35.9847 28.9131V7.72997C35.9847 6.91102 35.667 6.12554 35.1014 5.54596C34.5358 4.96638 33.7684 4.64008 32.9678 4.63867Z" fill="#35AFAC"/>
<path d="M24.7155 0.117173L25.1924 0.647413C26.5494 2.17755 27.3139 4.16159 27.3425 6.2273C27.3711 8.29301 26.662 10.2984 25.348 11.8673L24.954 12.3339C24.8941 12.4029 24.8103 12.4454 24.7203 12.4523C24.6303 12.4593 24.5412 12.4301 24.4719 12.371L22.9168 10.9924C22.8478 10.931 22.8053 10.8441 22.7985 10.7508C22.7917 10.6575 22.8212 10.5652 22.8806 10.494L23.2745 10.0274C24.152 8.9848 24.6273 7.65041 24.611 6.27478C24.5948 4.89914 24.0882 3.57689 23.1864 2.55628L22.8546 2.1798C22.801 2.11549 22.7715 2.0337 22.7715 1.94915C22.7715 1.86459 22.801 1.7828 22.8546 1.71849L24.2127 0.127772C24.244 0.0915809 24.2824 0.0624215 24.3252 0.0421225C24.3681 0.0218234 24.4146 0.0108364 24.4618 0.00984008C24.5091 0.00884379 24.556 0.0178556 24.5997 0.0363294C24.6433 0.0548033 24.6828 0.082333 24.7155 0.117173Z" fill="#35AFAC"/>
</g>
<defs>
<clipPath id="clip0_299_14462">
<rect width="36" height="32" fill="white"/>
</clipPath>
</defs>
</svg>
