<svg width="56" height="38" viewBox="0 0 56 38" fill="none" xmlns="http://www.w3.org/2000/svg">
<g clip-path="url(#clip0_970_11068)">
<mask id="path-1-inside-1_970_11068" fill="white">
<rect x="13" width="30" height="38" rx="2"/>
</mask>
<rect x="13" width="30" height="38" rx="2" stroke="#35AFAC" stroke-width="6" mask="url(#path-1-inside-1_970_11068)"/>
<rect x="19" y="9" width="18" height="3" rx="0.5" fill="#35AFAC"/>
<rect x="19" y="25" width="18" height="3" rx="0.5" fill="#35AFAC"/>
<rect x="19" y="17" width="10" height="3" rx="0.5" fill="#35AFAC"/>
<path d="M37.0416 14.0747L37.2587 14.1876C37.7182 14.4568 38.1282 14.799 38.4708 15.1995C38.867 15.6626 39.1659 16.1951 39.3505 16.7665C39.5351 17.3379 39.6022 17.9376 39.5474 18.5316C39.5021 19.0225 39.3742 19.5018 39.1689 19.9507L38.8748 20.4916C38.446 21.1651 37.8385 21.7183 37.1105 22.0926C36.2901 22.5144 35.3555 22.689 34.4256 22.5951C33.4959 22.5012 32.6142 22.1433 31.8909 21.5693C31.1678 20.9955 30.6346 20.2308 30.3572 19.3722C30.0798 18.5135 30.0699 17.5971 30.3307 16.7383C30.5916 15.8792 31.1119 15.1158 31.828 14.5463C32.5442 13.9767 33.4227 13.6278 34.3519 13.5442C35.281 13.4606 36.217 13.6461 37.0416 14.0747ZM41.0092 25.2894C41.343 25.024 41.6568 24.7371 41.9486 24.431L52.0782 29.7001C52.7917 30.0713 53.6636 29.8178 54.0342 29.1363L54.943 27.465C55.3189 26.7736 55.0387 25.9009 54.3147 25.5242L44.2075 20.2668C44.4401 19.275 44.5031 18.2444 44.3882 17.2159C44.1832 15.3825 43.4219 13.6404 42.2009 12.2104C40.9801 10.7806 39.3559 9.7286 37.5354 9.18517C35.715 8.64179 33.7795 8.63099 31.973 9.15236C30.1664 9.67372 28.5677 10.7045 27.3792 12.1156C26.1907 13.5269 25.465 15.2564 25.2969 17.0863C25.1288 18.9164 25.526 20.7633 26.4391 22.3928C27.3522 24.0222 28.7389 25.3589 30.4221 26.2351C31.5397 26.8169 32.7604 27.1812 34.0141 27.3079C35.2679 27.4347 36.5306 27.3215 37.7304 26.9752C38.9303 26.6289 40.0444 26.0562 41.0092 25.2894Z" fill="#35AFAC" stroke="#ECF2F2" stroke-width="2"/>
</g>
<defs>
<clipPath id="clip0_970_11068">
<rect width="56" height="38" fill="white"/>
</clipPath>
</defs>
</svg>
