<svg width="21" height="21" viewBox="0 0 21 21" fill="none" xmlns="http://www.w3.org/2000/svg">
<path d="M19.7035 4.31641H7.38817C7.22449 4.31641 7.0918 4.44974 7.0918 4.61421V5.91948C7.0918 6.08396 7.22449 6.21729 7.38817 6.21729H19.7035C19.8671 6.21729 19.9998 6.08396 19.9998 5.91948V4.61421C19.9998 4.44974 19.8671 4.31641 19.7035 4.31641Z" fill="#35AFAC"/>
<path d="M19.7035 10.0645H7.38817C7.22449 10.0645 7.0918 10.1978 7.0918 10.3623V11.6675C7.0918 11.832 7.22449 11.9653 7.38817 11.9653H19.7035C19.8671 11.9653 19.9998 11.832 19.9998 11.6675V10.3623C19.9998 10.1978 19.8671 10.0645 19.7035 10.0645Z" fill="#35AFAC"/>
<path d="M19.7035 15.7832H7.38817C7.22449 15.7832 7.0918 15.9165 7.0918 16.081V17.3863C7.0918 17.5508 7.22449 17.6841 7.38817 17.6841H19.7035C19.8671 17.6841 19.9998 17.5508 19.9998 17.3863V16.081C19.9998 15.9165 19.8671 15.7832 19.7035 15.7832Z" fill="#35AFAC"/>
<path d="M3.26117 6.53451C3.95769 6.53451 4.52233 5.96714 4.52233 5.26726C4.52233 4.56737 3.95769 4 3.26117 4C2.56464 4 2 4.56737 2 5.26726C2 5.96714 2.56464 6.53451 3.26117 6.53451Z" fill="#35AFAC"/>
<path d="M3.26117 12.2806C3.95769 12.2806 4.52233 11.7132 4.52233 11.0133C4.52233 10.3135 3.95769 9.74609 3.26117 9.74609C2.56464 9.74609 2 10.3135 2 11.0133C2 11.7132 2.56464 12.2806 3.26117 12.2806Z" fill="#35AFAC"/>
<path d="M3.26117 17.9994C3.95769 17.9994 4.52233 17.432 4.52233 16.7321C4.52233 16.0322 3.95769 15.4648 3.26117 15.4648C2.56464 15.4648 2 16.0322 2 16.7321C2 17.432 2.56464 17.9994 3.26117 17.9994Z" fill="#35AFAC"/>
</svg>
