<svg width="42" height="27" viewBox="0 0 42 27" fill="none" xmlns="http://www.w3.org/2000/svg">
<mask id="path-1-inside-1_601_24155" fill="white">
<rect y="5.26172" width="38.0435" height="21.7391" rx="2.17391"/>
</mask>
<rect y="5.26172" width="38.0435" height="21.7391" rx="2.17391" stroke="#35AFAC" stroke-width="5.43478" mask="url(#path-1-inside-1_601_24155)"/>
<circle cx="19.0226" cy="16.13" r="4.61957" stroke="#35AFAC" stroke-width="2.71739"/>
<rect x="4.89062" y="10.1523" width="6.52174" height="2.17391" rx="0.543478" fill="#35AFAC"/>
<rect x="26.6309" y="19.9355" width="6.52174" height="2.17391" rx="0.543478" fill="#35AFAC"/>
<path d="M29.8827 2.15918L30.4591 1.58274L34.0134 5.13705L37.5677 1.58274M29.8827 2.15918L37.5677 1.58274M29.8827 2.15918L30.4591 1.58274C29.9285 1.05213 29.0682 1.05213 28.5376 1.58274L27.2995 2.82083C26.7689 3.35143 26.7689 4.21171 27.2995 4.74232L30.8538 8.29663M29.8827 2.15918L30.8538 8.29663M37.5677 1.58274L38.1442 2.15918L27.2995 11.8509M37.5677 1.58274C38.0983 1.05213 38.9586 1.05213 39.4892 1.58274L40.7273 2.82083L40.1509 3.39728L40.7273 2.82083C41.2579 3.35143 41.2579 4.21171 40.7273 4.74232L40.1509 4.16587L40.7273 4.74232L37.173 8.29663L40.7273 11.8509C41.2579 12.3815 41.2579 13.2418 40.7273 13.7724L39.4892 15.0105C38.9586 15.5411 38.0983 15.5411 37.5677 15.0105L34.0134 11.4562L30.4591 15.0105C29.9285 15.5411 29.0682 15.5411 28.5376 15.0105L27.2995 13.7724C26.7689 13.2418 26.7689 12.3815 27.2995 11.8509M27.2995 11.8509L30.8538 8.29663M27.2995 11.8509L30.8538 8.29663" fill="#35AFAC" stroke="#ECF2F2" stroke-width="1.63043"/>
</svg>
