<svg width="104" height="39" viewBox="0 0 104 39" fill="none" xmlns="http://www.w3.org/2000/svg">
<path d="M4.67779 35.144C3.59779 35.144 2.72779 34.826 2.06779 34.19C1.41979 33.542 1.09579 32.678 1.09579 31.598V25.766C1.09579 24.698 1.41979 23.846 2.06779 23.21C2.72779 22.574 3.59779 22.256 4.67779 22.256C5.76979 22.256 6.63979 22.574 7.28779 23.21C7.94779 23.846 8.27779 24.698 8.27779 25.766V25.964C8.27779 26.024 8.25379 26.078 8.20579 26.126C8.16979 26.162 8.12179 26.18 8.06179 26.18L5.95579 26.27C5.81179 26.27 5.73979 26.204 5.73979 26.072V25.604C5.73979 25.256 5.64379 24.974 5.45179 24.758C5.25979 24.542 5.00179 24.434 4.67779 24.434C4.36579 24.434 4.11379 24.542 3.92179 24.758C3.72979 24.974 3.63379 25.256 3.63379 25.604V31.814C3.63379 32.162 3.72979 32.444 3.92179 32.66C4.11379 32.864 4.36579 32.966 4.67779 32.966C5.00179 32.966 5.25979 32.864 5.45179 32.66C5.64379 32.444 5.73979 32.162 5.73979 31.814V31.328C5.73979 31.268 5.75779 31.22 5.79379 31.184C5.84179 31.136 5.89579 31.112 5.95579 31.112L8.06179 31.202C8.12179 31.202 8.16979 31.226 8.20579 31.274C8.25379 31.31 8.27779 31.358 8.27779 31.418V31.598C8.27779 32.678 7.94779 33.542 7.28779 34.19C6.62779 34.826 5.75779 35.144 4.67779 35.144ZM13.7654 25.604C14.7854 25.604 15.6134 25.88 16.2494 26.432C16.8854 26.984 17.2034 27.71 17.2034 28.61V34.784C17.2034 34.844 17.1794 34.898 17.1314 34.946C17.0954 34.982 17.0474 35 16.9874 35H14.8814C14.8214 35 14.7674 34.982 14.7194 34.946C14.6834 34.898 14.6654 34.844 14.6654 34.784V34.388C14.6654 34.352 14.6534 34.328 14.6294 34.316C14.6054 34.304 14.5814 34.316 14.5574 34.352C14.1614 34.856 13.5494 35.12 12.7214 35.144C12.0254 35.144 11.4194 34.952 10.9034 34.568C10.3994 34.184 10.1474 33.452 10.1474 32.372C10.1474 31.256 10.4534 30.488 11.0654 30.068C11.6894 29.648 12.5834 29.438 13.7474 29.438H14.5754C14.6354 29.438 14.6654 29.408 14.6654 29.348V28.898C14.6654 28.574 14.5754 28.31 14.3954 28.106C14.2274 27.89 14.0114 27.782 13.7474 27.782C13.5434 27.782 13.3694 27.848 13.2254 27.98C13.0934 28.1 13.0094 28.274 12.9734 28.502C12.9614 28.646 12.8834 28.718 12.7394 28.718L10.5794 28.7C10.4354 28.7 10.3634 28.628 10.3634 28.484C10.4234 27.608 10.7654 26.912 11.3894 26.396C12.0134 25.868 12.8054 25.604 13.7654 25.604ZM13.5854 33.182C13.8614 33.182 14.1074 33.092 14.3234 32.912C14.5514 32.72 14.6654 32.468 14.6654 32.156V31.31C14.6654 31.25 14.6354 31.22 14.5754 31.22H13.8374C13.5134 31.22 13.2494 31.316 13.0454 31.508C12.8534 31.688 12.7574 31.94 12.7574 32.264C12.7574 32.564 12.8294 32.792 12.9734 32.948C13.1294 33.104 13.3334 33.182 13.5854 33.182ZM23.6526 25.604C24.4686 25.604 25.0806 25.874 25.4886 26.414C25.8966 26.954 26.1006 27.71 26.1006 28.682V34.784C26.1006 34.844 26.0766 34.898 26.0286 34.946C25.9926 34.982 25.9446 35 25.8846 35H23.7786C23.7186 35 23.6646 34.982 23.6166 34.946C23.5806 34.898 23.5626 34.844 23.5626 34.784V28.88C23.5626 28.532 23.4906 28.262 23.3466 28.07C23.2146 27.878 23.0166 27.782 22.7526 27.782C22.4766 27.782 22.2606 27.884 22.1046 28.088C21.9606 28.28 21.8886 28.556 21.8886 28.916V34.784C21.8886 34.844 21.8646 34.898 21.8166 34.946C21.7806 34.982 21.7326 35 21.6726 35H19.5666C19.5066 35 19.4526 34.982 19.4046 34.946C19.3686 34.898 19.3506 34.844 19.3506 34.784V25.964C19.3506 25.904 19.3686 25.856 19.4046 25.82C19.4526 25.772 19.5066 25.748 19.5666 25.748H21.6726C21.7326 25.748 21.7806 25.772 21.8166 25.82C21.8646 25.856 21.8886 25.904 21.8886 25.964V26.306C21.8886 26.342 21.9006 26.36 21.9246 26.36C21.9606 26.36 22.0026 26.336 22.0506 26.288C22.4346 25.832 22.9686 25.604 23.6526 25.604ZM31.5774 35.144C30.5214 35.144 29.6874 34.874 29.0754 34.334C28.4754 33.794 28.1754 33.056 28.1754 32.12V28.628C28.1754 27.716 28.4754 26.984 29.0754 26.432C29.6874 25.88 30.5214 25.604 31.5774 25.604C32.6334 25.604 33.4614 25.874 34.0614 26.414C34.6734 26.954 34.9794 27.656 34.9794 28.52V28.844C34.9794 28.904 34.9554 28.958 34.9074 29.006C34.8714 29.042 34.8234 29.06 34.7634 29.06L32.6574 29.15C32.5134 29.15 32.4414 29.078 32.4414 28.934V28.718C32.4414 28.454 32.3574 28.232 32.1894 28.052C32.0334 27.872 31.8294 27.782 31.5774 27.782C31.3134 27.782 31.1034 27.878 30.9474 28.07C30.7914 28.262 30.7134 28.514 30.7134 28.826V31.922C30.7134 32.234 30.7914 32.486 30.9474 32.678C31.1034 32.87 31.3134 32.966 31.5774 32.966C31.8294 32.966 32.0334 32.876 32.1894 32.696C32.3574 32.504 32.4414 32.282 32.4414 32.03V31.796C32.4414 31.736 32.4594 31.688 32.4954 31.652C32.5434 31.604 32.5974 31.58 32.6574 31.58L34.7634 31.598C34.8234 31.598 34.8714 31.622 34.9074 31.67C34.9554 31.706 34.9794 31.754 34.9794 31.814V32.228C34.9794 33.116 34.6734 33.824 34.0614 34.352C33.4614 34.88 32.6334 35.144 31.5774 35.144ZM43.6841 30.95C43.6841 31.01 43.6601 31.064 43.6121 31.112C43.5761 31.148 43.5281 31.166 43.4681 31.166H39.5081C39.4481 31.166 39.4181 31.196 39.4181 31.256V31.922C39.4181 32.222 39.4961 32.474 39.6521 32.678C39.8201 32.87 40.0301 32.966 40.2821 32.966C40.5101 32.966 40.6961 32.894 40.8401 32.75C40.9841 32.594 41.0801 32.402 41.1281 32.174C41.1641 32.054 41.2421 31.994 41.3621 31.994L43.4321 32.102C43.4921 32.102 43.5401 32.126 43.5761 32.174C43.6241 32.21 43.6421 32.264 43.6301 32.336C43.5461 33.26 43.2221 33.962 42.6581 34.442C42.1061 34.91 41.3141 35.144 40.2821 35.144C39.2141 35.144 38.3801 34.88 37.7801 34.352C37.1801 33.812 36.8801 33.068 36.8801 32.12V28.628C36.8801 27.716 37.1801 26.984 37.7801 26.432C38.3921 25.88 39.2261 25.604 40.2821 25.604C41.3381 25.604 42.1661 25.88 42.7661 26.432C43.3781 26.984 43.6841 27.716 43.6841 28.628V30.95ZM40.2821 27.782C40.0301 27.782 39.8201 27.878 39.6521 28.07C39.4961 28.262 39.4181 28.508 39.4181 28.808V29.51C39.4181 29.57 39.4481 29.6 39.5081 29.6H41.0561C41.1161 29.6 41.1461 29.57 41.1461 29.51V28.808C41.1461 28.508 41.0621 28.262 40.8941 28.07C40.7381 27.878 40.5341 27.782 40.2821 27.782ZM45.8899 35C45.8299 35 45.7759 34.982 45.7279 34.946C45.6919 34.898 45.6739 34.844 45.6739 34.784V22.616C45.6739 22.556 45.6919 22.508 45.7279 22.472C45.7759 22.424 45.8299 22.4 45.8899 22.4H47.9959C48.0559 22.4 48.1039 22.424 48.1399 22.472C48.1879 22.508 48.2119 22.556 48.2119 22.616V34.784C48.2119 34.844 48.1879 34.898 48.1399 34.946C48.1039 34.982 48.0559 35 47.9959 35H45.8899ZM50.2276 35C50.1556 35 50.1016 34.982 50.0656 34.946C50.0296 34.898 50.0236 34.832 50.0476 34.748L53.9896 22.58C54.0256 22.46 54.1036 22.4 54.2236 22.4H56.3296C56.4016 22.4 56.4556 22.424 56.4916 22.472C56.5276 22.508 56.5336 22.568 56.5096 22.652L52.5676 34.82C52.5316 34.94 52.4536 35 52.3336 35H50.2276ZM58.9969 35C58.9369 35 58.8829 34.982 58.8349 34.946C58.7989 34.898 58.7809 34.844 58.7809 34.784V22.616C58.7809 22.556 58.7989 22.508 58.8349 22.472C58.8829 22.424 58.9369 22.4 58.9969 22.4H62.2549C63.3469 22.4 64.2229 22.718 64.8829 23.354C65.5429 23.99 65.8729 24.836 65.8729 25.892V31.508C65.8729 32.564 65.5429 33.41 64.8829 34.046C64.2229 34.682 63.3469 35 62.2549 35H58.9969ZM61.3189 32.732C61.3189 32.792 61.3489 32.822 61.4089 32.822L62.2189 32.804C62.5429 32.792 62.8069 32.654 63.0109 32.39C63.2149 32.126 63.3229 31.778 63.3349 31.346V26.054C63.3349 25.598 63.2329 25.238 63.0289 24.974C62.8249 24.71 62.5489 24.578 62.2009 24.578H61.4089C61.3489 24.578 61.3189 24.608 61.3189 24.668V32.732ZM74.8114 30.95C74.8114 31.01 74.7874 31.064 74.7394 31.112C74.7034 31.148 74.6554 31.166 74.5954 31.166H70.6354C70.5754 31.166 70.5454 31.196 70.5454 31.256V31.922C70.5454 32.222 70.6234 32.474 70.7794 32.678C70.9474 32.87 71.1574 32.966 71.4094 32.966C71.6374 32.966 71.8234 32.894 71.9674 32.75C72.1114 32.594 72.2074 32.402 72.2554 32.174C72.2914 32.054 72.3694 31.994 72.4894 31.994L74.5594 32.102C74.6194 32.102 74.6674 32.126 74.7034 32.174C74.7514 32.21 74.7694 32.264 74.7574 32.336C74.6734 33.26 74.3494 33.962 73.7854 34.442C73.2334 34.91 72.4414 35.144 71.4094 35.144C70.3414 35.144 69.5074 34.88 68.9074 34.352C68.3074 33.812 68.0074 33.068 68.0074 32.12V28.628C68.0074 27.716 68.3074 26.984 68.9074 26.432C69.5194 25.88 70.3534 25.604 71.4094 25.604C72.4654 25.604 73.2934 25.88 73.8934 26.432C74.5054 26.984 74.8114 27.716 74.8114 28.628V30.95ZM71.4094 27.782C71.1574 27.782 70.9474 27.878 70.7794 28.07C70.6234 28.262 70.5454 28.508 70.5454 28.808V29.51C70.5454 29.57 70.5754 29.6 70.6354 29.6H72.1834C72.2434 29.6 72.2734 29.57 72.2734 29.51V28.808C72.2734 28.508 72.1894 28.262 72.0214 28.07C71.8654 27.878 71.6614 27.782 71.4094 27.782ZM77.0173 35C76.9573 35 76.9033 34.982 76.8553 34.946C76.8193 34.898 76.8013 34.844 76.8013 34.784V22.616C76.8013 22.556 76.8193 22.508 76.8553 22.472C76.9033 22.424 76.9573 22.4 77.0173 22.4H79.1233C79.1833 22.4 79.2313 22.424 79.2673 22.472C79.3153 22.508 79.3393 22.556 79.3393 22.616V34.784C79.3393 34.844 79.3153 34.898 79.2673 34.946C79.2313 34.982 79.1833 35 79.1233 35H77.0173ZM88.213 30.95C88.213 31.01 88.189 31.064 88.141 31.112C88.105 31.148 88.057 31.166 87.997 31.166H84.037C83.977 31.166 83.947 31.196 83.947 31.256V31.922C83.947 32.222 84.025 32.474 84.181 32.678C84.349 32.87 84.559 32.966 84.811 32.966C85.039 32.966 85.225 32.894 85.369 32.75C85.513 32.594 85.609 32.402 85.657 32.174C85.693 32.054 85.771 31.994 85.891 31.994L87.961 32.102C88.021 32.102 88.069 32.126 88.105 32.174C88.153 32.21 88.171 32.264 88.159 32.336C88.075 33.26 87.751 33.962 87.187 34.442C86.635 34.91 85.843 35.144 84.811 35.144C83.743 35.144 82.909 34.88 82.309 34.352C81.709 33.812 81.409 33.068 81.409 32.12V28.628C81.409 27.716 81.709 26.984 82.309 26.432C82.921 25.88 83.755 25.604 84.811 25.604C85.867 25.604 86.695 25.88 87.295 26.432C87.907 26.984 88.213 27.716 88.213 28.628V30.95ZM84.811 27.782C84.559 27.782 84.349 27.878 84.181 28.07C84.025 28.262 83.947 28.508 83.947 28.808V29.51C83.947 29.57 83.977 29.6 84.037 29.6H85.585C85.645 29.6 85.675 29.57 85.675 29.51V28.808C85.675 28.508 85.591 28.262 85.423 28.07C85.267 27.878 85.063 27.782 84.811 27.782ZM94.4341 27.314C94.4341 27.374 94.4101 27.428 94.3621 27.476C94.3261 27.512 94.2781 27.53 94.2181 27.53H93.2101C93.1501 27.53 93.1201 27.56 93.1201 27.62V31.904C93.1201 32.252 93.1861 32.492 93.3181 32.624C93.4501 32.756 93.6481 32.816 93.9121 32.804H94.0381C94.0981 32.804 94.1461 32.828 94.1821 32.876C94.2301 32.912 94.2541 32.96 94.2541 33.02V34.784C94.2541 34.844 94.2301 34.898 94.1821 34.946C94.1461 34.982 94.0981 35 94.0381 35H93.3181C92.4421 35 91.7821 34.856 91.3381 34.568C90.8941 34.268 90.6721 33.704 90.6721 32.876V27.62C90.6721 27.56 90.6421 27.53 90.5821 27.53H89.9881C89.9281 27.53 89.8741 27.512 89.8261 27.476C89.7901 27.428 89.7721 27.374 89.7721 27.314V25.964C89.7721 25.904 89.7901 25.856 89.8261 25.82C89.8741 25.772 89.9281 25.748 89.9881 25.748H90.5821C90.6421 25.748 90.6721 25.718 90.6721 25.658V23.66C90.6721 23.6 90.6901 23.552 90.7261 23.516C90.7741 23.468 90.8281 23.444 90.8881 23.444H92.9041C92.9641 23.444 93.0121 23.468 93.0481 23.516C93.0961 23.552 93.1201 23.6 93.1201 23.66V25.658C93.1201 25.718 93.1501 25.748 93.2101 25.748H94.2181C94.2781 25.748 94.3261 25.772 94.3621 25.82C94.4101 25.856 94.4341 25.904 94.4341 25.964V27.314ZM103.038 30.95C103.038 31.01 103.014 31.064 102.966 31.112C102.93 31.148 102.882 31.166 102.822 31.166H98.8624C98.8024 31.166 98.7724 31.196 98.7724 31.256V31.922C98.7724 32.222 98.8504 32.474 99.0064 32.678C99.1744 32.87 99.3844 32.966 99.6364 32.966C99.8644 32.966 100.05 32.894 100.194 32.75C100.338 32.594 100.434 32.402 100.482 32.174C100.518 32.054 100.596 31.994 100.716 31.994L102.786 32.102C102.846 32.102 102.894 32.126 102.93 32.174C102.978 32.21 102.996 32.264 102.984 32.336C102.9 33.26 102.576 33.962 102.012 34.442C101.46 34.91 100.668 35.144 99.6364 35.144C98.5684 35.144 97.7344 34.88 97.1344 34.352C96.5344 33.812 96.2344 33.068 96.2344 32.12V28.628C96.2344 27.716 96.5344 26.984 97.1344 26.432C97.7464 25.88 98.5804 25.604 99.6364 25.604C100.692 25.604 101.52 25.88 102.12 26.432C102.732 26.984 103.038 27.716 103.038 28.628V30.95ZM99.6364 27.782C99.3844 27.782 99.1744 27.878 99.0064 28.07C98.8504 28.262 98.7724 28.508 98.7724 28.808V29.51C98.7724 29.57 98.8024 29.6 98.8624 29.6H100.41C100.47 29.6 100.5 29.57 100.5 29.51V28.808C100.5 28.508 100.416 28.262 100.248 28.07C100.092 27.878 99.8884 27.782 99.6364 27.782Z" fill="#F28080"/>
<g clip-path="url(#clip0_648_11901)">
<path d="M56.3279 0.103747L46.1016 10.3301C45.9657 10.466 45.9657 10.6864 46.1016 10.8223L47.1802 11.9009C47.3161 12.0369 47.5365 12.0369 47.6724 11.9009L57.8988 1.67461C58.0347 1.53869 58.0347 1.31832 57.8988 1.18241L56.8201 0.103747C56.6842 -0.0321713 56.4638 -0.0321708 56.3279 0.103747Z" fill="#F28080"/>
<path d="M46.1018 1.67211L56.3281 11.8984C56.464 12.0343 56.6844 12.0343 56.8203 11.8984L57.899 10.8198C58.0349 10.6839 58.0349 10.4635 57.899 10.3276L47.6727 0.101243C47.5367 -0.0346752 47.3164 -0.0346757 47.1805 0.101243L46.1018 1.1799C45.9659 1.31582 45.9659 1.53619 46.1018 1.67211Z" fill="#F28080"/>
</g>
<defs>
<clipPath id="clip0_648_11901">
<rect width="12" height="12" fill="white" transform="translate(46)"/>
</clipPath>
</defs>
</svg>
