<svg width="15" height="15" viewBox="0 0 15 15" fill="none" xmlns="http://www.w3.org/2000/svg">
<g clip-path="url(#clip0_648_11993)">
<path d="M12.9108 0.12822L0.127941 12.9111C-0.0419572 13.081 -0.0419572 13.3565 0.127941 13.5264L1.47626 14.8747C1.64616 15.0446 1.92162 15.0446 2.09152 14.8747L14.8744 2.0918C15.0443 1.9219 15.0443 1.64644 14.8744 1.47654L13.5261 0.128219C13.3562 -0.041679 13.0807 -0.0416787 12.9108 0.12822Z" fill="#35AFAC"/>
<path d="M0.12822 2.08916L12.9111 14.8721C13.081 15.042 13.3565 15.042 13.5264 14.8721L14.8747 13.5237C15.0446 13.3538 15.0446 13.0784 14.8747 12.9085L2.0918 0.125578C1.9219 -0.0443205 1.64644 -0.0443207 1.47654 0.125577L0.128219 1.4739C-0.041679 1.6438 -0.0416787 1.91926 0.12822 2.08916Z" fill="#35AFAC"/>
</g>
<defs>
<clipPath id="clip0_648_11993">
<rect width="15" height="15" fill="white"/>
</clipPath>
</defs>
</svg>
