<svg width="54" height="39" viewBox="0 0 54 39" fill="none" xmlns="http://www.w3.org/2000/svg">
<path d="M1.41054 35C1.35054 35 1.29654 34.982 1.24854 34.946C1.21254 34.898 1.19454 34.844 1.19454 34.784V22.616C1.19454 22.556 1.21254 22.508 1.24854 22.472C1.29654 22.424 1.35054 22.4 1.41054 22.4H4.66854C5.76054 22.4 6.63654 22.718 7.29654 23.354C7.95654 23.99 8.28654 24.836 8.28654 25.892V31.508C8.28654 32.564 7.95654 33.41 7.29654 34.046C6.63654 34.682 5.76054 35 4.66854 35H1.41054ZM3.73254 32.732C3.73254 32.792 3.76254 32.822 3.82254 32.822L4.63254 32.804C4.95654 32.792 5.22054 32.654 5.42454 32.39C5.62854 32.126 5.73654 31.778 5.74854 31.346V26.054C5.74854 25.598 5.64654 25.238 5.44254 24.974C5.23854 24.71 4.96254 24.578 4.61454 24.578H3.82254C3.76254 24.578 3.73254 24.608 3.73254 24.668V32.732ZM17.2251 30.95C17.2251 31.01 17.2011 31.064 17.1531 31.112C17.1171 31.148 17.0691 31.166 17.0091 31.166H13.0491C12.9891 31.166 12.9591 31.196 12.9591 31.256V31.922C12.9591 32.222 13.0371 32.474 13.1931 32.678C13.3611 32.87 13.5711 32.966 13.8231 32.966C14.0511 32.966 14.2371 32.894 14.3811 32.75C14.5251 32.594 14.6211 32.402 14.6691 32.174C14.7051 32.054 14.7831 31.994 14.9031 31.994L16.9731 32.102C17.0331 32.102 17.0811 32.126 17.1171 32.174C17.1651 32.21 17.1831 32.264 17.1711 32.336C17.0871 33.26 16.7631 33.962 16.1991 34.442C15.6471 34.91 14.8551 35.144 13.8231 35.144C12.7551 35.144 11.9211 34.88 11.3211 34.352C10.7211 33.812 10.4211 33.068 10.4211 32.12V28.628C10.4211 27.716 10.7211 26.984 11.3211 26.432C11.9331 25.88 12.7671 25.604 13.8231 25.604C14.8791 25.604 15.7071 25.88 16.3071 26.432C16.9191 26.984 17.2251 27.716 17.2251 28.628V30.95ZM13.8231 27.782C13.5711 27.782 13.3611 27.878 13.1931 28.07C13.0371 28.262 12.9591 28.508 12.9591 28.808V29.51C12.9591 29.57 12.9891 29.6 13.0491 29.6H14.5971C14.6571 29.6 14.6871 29.57 14.6871 29.51V28.808C14.6871 28.508 14.6031 28.262 14.4351 28.07C14.2791 27.878 14.0751 27.782 13.8231 27.782ZM22.5629 35.144C21.5069 35.144 20.6729 34.874 20.0609 34.334C19.4609 33.794 19.1609 33.056 19.1609 32.12V28.628C19.1609 27.716 19.4609 26.984 20.0609 26.432C20.6729 25.88 21.5069 25.604 22.5629 25.604C23.6189 25.604 24.4469 25.874 25.0469 26.414C25.6589 26.954 25.9649 27.656 25.9649 28.52V28.844C25.9649 28.904 25.9409 28.958 25.8929 29.006C25.8569 29.042 25.8089 29.06 25.7489 29.06L23.6429 29.15C23.4989 29.15 23.4269 29.078 23.4269 28.934V28.718C23.4269 28.454 23.3429 28.232 23.1749 28.052C23.0189 27.872 22.8149 27.782 22.5629 27.782C22.2989 27.782 22.0889 27.878 21.9329 28.07C21.7769 28.262 21.6989 28.514 21.6989 28.826V31.922C21.6989 32.234 21.7769 32.486 21.9329 32.678C22.0889 32.87 22.2989 32.966 22.5629 32.966C22.8149 32.966 23.0189 32.876 23.1749 32.696C23.3429 32.504 23.4269 32.282 23.4269 32.03V31.796C23.4269 31.736 23.4449 31.688 23.4809 31.652C23.5289 31.604 23.5829 31.58 23.6429 31.58L25.7489 31.598C25.8089 31.598 25.8569 31.622 25.8929 31.67C25.9409 31.706 25.9649 31.754 25.9649 31.814V32.228C25.9649 33.116 25.6589 33.824 25.0469 34.352C24.4469 34.88 23.6189 35.144 22.5629 35.144ZM28.1356 35C28.0756 35 28.0216 34.982 27.9736 34.946C27.9376 34.898 27.9196 34.844 27.9196 34.784V22.616C27.9196 22.556 27.9376 22.508 27.9736 22.472C28.0216 22.424 28.0756 22.4 28.1356 22.4H30.2416C30.3016 22.4 30.3496 22.424 30.3856 22.472C30.4336 22.508 30.4576 22.556 30.4576 22.616V34.784C30.4576 34.844 30.4336 34.898 30.3856 34.946C30.3496 34.982 30.3016 35 30.2416 35H28.1356ZM33.9313 24.704C33.5233 24.704 33.1813 24.572 32.9053 24.308C32.6413 24.032 32.5093 23.69 32.5093 23.282C32.5093 22.862 32.6413 22.52 32.9053 22.256C33.1693 21.992 33.5113 21.86 33.9313 21.86C34.3513 21.86 34.6873 21.992 34.9393 22.256C35.2033 22.52 35.3353 22.862 35.3353 23.282C35.3353 23.69 35.2033 24.032 34.9393 24.308C34.6753 24.572 34.3393 24.704 33.9313 24.704ZM32.9053 35C32.8453 35 32.7913 34.982 32.7433 34.946C32.7073 34.898 32.6893 34.844 32.6893 34.784V25.964C32.6893 25.904 32.7073 25.856 32.7433 25.82C32.7913 25.772 32.8453 25.748 32.9053 25.748H35.0113C35.0713 25.748 35.1193 25.772 35.1553 25.82C35.2033 25.856 35.2273 25.904 35.2273 25.964V34.784C35.2273 34.844 35.2033 34.898 35.1553 34.946C35.1193 34.982 35.0713 35 35.0113 35H32.9053ZM41.7928 25.604C42.6088 25.604 43.2208 25.874 43.6288 26.414C44.0368 26.954 44.2408 27.71 44.2408 28.682V34.784C44.2408 34.844 44.2168 34.898 44.1688 34.946C44.1328 34.982 44.0848 35 44.0248 35H41.9188C41.8588 35 41.8048 34.982 41.7568 34.946C41.7208 34.898 41.7028 34.844 41.7028 34.784V28.88C41.7028 28.532 41.6308 28.262 41.4868 28.07C41.3548 27.878 41.1568 27.782 40.8928 27.782C40.6168 27.782 40.4008 27.884 40.2448 28.088C40.1008 28.28 40.0288 28.556 40.0288 28.916V34.784C40.0288 34.844 40.0048 34.898 39.9568 34.946C39.9208 34.982 39.8728 35 39.8128 35H37.7068C37.6468 35 37.5928 34.982 37.5448 34.946C37.5088 34.898 37.4908 34.844 37.4908 34.784V25.964C37.4908 25.904 37.5088 25.856 37.5448 25.82C37.5928 25.772 37.6468 25.748 37.7068 25.748H39.8128C39.8728 25.748 39.9208 25.772 39.9568 25.82C40.0048 25.856 40.0288 25.904 40.0288 25.964V26.306C40.0288 26.342 40.0408 26.36 40.0648 26.36C40.1008 26.36 40.1428 26.336 40.1908 26.288C40.5748 25.832 41.1088 25.604 41.7928 25.604ZM53.1196 30.95C53.1196 31.01 53.0956 31.064 53.0476 31.112C53.0116 31.148 52.9636 31.166 52.9036 31.166H48.9436C48.8836 31.166 48.8536 31.196 48.8536 31.256V31.922C48.8536 32.222 48.9316 32.474 49.0876 32.678C49.2556 32.87 49.4656 32.966 49.7176 32.966C49.9456 32.966 50.1316 32.894 50.2756 32.75C50.4196 32.594 50.5156 32.402 50.5636 32.174C50.5996 32.054 50.6776 31.994 50.7976 31.994L52.8676 32.102C52.9276 32.102 52.9756 32.126 53.0116 32.174C53.0596 32.21 53.0776 32.264 53.0656 32.336C52.9816 33.26 52.6576 33.962 52.0936 34.442C51.5416 34.91 50.7496 35.144 49.7176 35.144C48.6496 35.144 47.8156 34.88 47.2156 34.352C46.6156 33.812 46.3156 33.068 46.3156 32.12V28.628C46.3156 27.716 46.6156 26.984 47.2156 26.432C47.8276 25.88 48.6616 25.604 49.7176 25.604C50.7736 25.604 51.6016 25.88 52.2016 26.432C52.8136 26.984 53.1196 27.716 53.1196 28.628V30.95ZM49.7176 27.782C49.4656 27.782 49.2556 27.878 49.0876 28.07C48.9316 28.262 48.8536 28.508 48.8536 28.808V29.51C48.8536 29.57 48.8836 29.6 48.9436 29.6H50.4916C50.5516 29.6 50.5816 29.57 50.5816 29.51V28.808C50.5816 28.508 50.4976 28.262 50.3296 28.07C50.1736 27.878 49.9696 27.782 49.7176 27.782Z" fill="#3A3F3F"/>
<g clip-path="url(#clip0_648_11896)">
<path d="M31.3279 0.103747L21.1016 10.3301C20.9657 10.466 20.9657 10.6864 21.1016 10.8223L22.1802 11.9009C22.3161 12.0369 22.5365 12.0369 22.6724 11.9009L32.8988 1.67461C33.0347 1.53869 33.0347 1.31832 32.8988 1.18241L31.8201 0.103747C31.6842 -0.0321713 31.4638 -0.0321708 31.3279 0.103747Z" fill="#3A3F3F"/>
<path d="M21.1037 1.67211L31.3301 11.8984C31.466 12.0343 31.6864 12.0343 31.8223 11.8984L32.9009 10.8198C33.0369 10.6839 33.0369 10.4635 32.9009 10.3276L22.6746 0.101243C22.5387 -0.0346752 22.3183 -0.0346757 22.1824 0.101243L21.1037 1.1799C20.9678 1.31582 20.9678 1.53619 21.1037 1.67211Z" fill="#3A3F3F"/>
</g>
<defs>
<clipPath id="clip0_648_11896">
<rect width="12" height="12" fill="white" transform="translate(21)"/>
</clipPath>
</defs>
</svg>
