<svg width="15" height="10" viewBox="0 0 15 10" fill="none" xmlns="http://www.w3.org/2000/svg">
<g clip-path="url(#clip0_648_11939)">
<path d="M6.49142 9.11211L0.0575071 1.31297C-0.05839 1.17248 -0.0214487 0.976846 0.140018 0.876005L1.42143 0.0757272C1.58289 -0.0251133 1.80774 0.00702882 1.92364 0.147518L8.35755 7.94665C8.47344 8.08714 8.4365 8.28278 8.27504 8.38362L6.99363 9.1839C6.83216 9.28474 6.60731 9.2526 6.49142 9.11211Z" fill="#35AFAC"/>
<path d="M14.9133 1.29414L8.47938 9.09328C8.36348 9.23377 8.13864 9.26591 7.97717 9.16507L6.69576 8.36479C6.5343 8.26395 6.49735 8.06831 6.61325 7.92782L13.0472 0.128687C13.1631 -0.0118028 13.3879 -0.0439449 13.5494 0.0568956L14.8308 0.857174C14.9922 0.958014 15.0292 1.15365 14.9133 1.29414Z" fill="#35AFAC"/>
<path d="M6.76015 9.40333L5.70349 8.12417C5.71649 8.08993 5.74168 8.06019 5.77541 8.03923C5.80913 8.01827 5.84964 8.00718 5.89109 8.00759H9.08404C9.13037 8.00696 9.17546 8.02067 9.21123 8.0463C9.247 8.07193 9.27113 8.1078 9.2793 8.14749L8.41789 9.1868L7.76322 9.87634C7.72948 9.91253 7.68687 9.94171 7.63852 9.96175C7.59017 9.98179 7.53729 9.99219 7.48374 9.99219C7.43018 9.99219 7.3773 9.98179 7.32895 9.96175C7.2806 9.94171 7.23799 9.91253 7.20425 9.87634L6.76015 9.40333Z" fill="#35AFAC"/>
</g>
<defs>
<clipPath id="clip0_648_11939">
<rect width="10" height="15" fill="white" transform="matrix(0 -1 -1 0 15 10)"/>
</clipPath>
</defs>
</svg>
