<svg width="26" height="22" viewBox="0 0 26 22" fill="none" xmlns="http://www.w3.org/2000/svg">
<path d="M25.5174 0H0.482622C0.216077 0 0 0.219454 0 0.490164V2.63854C0 2.90925 0.216077 3.1287 0.482622 3.1287H25.5174C25.7839 3.1287 26 2.90925 26 2.63854V0.490164C26 0.219454 25.7839 0 25.5174 0Z" fill="#35AFAC"/>
<path d="M25.5174 9.45898H0.482622C0.216077 9.45898 0 9.67844 0 9.94915V12.0975C0 12.3682 0.216077 12.5877 0.482622 12.5877H25.5174C25.7839 12.5877 26 12.3682 26 12.0975V9.94915C26 9.67844 25.7839 9.45898 25.5174 9.45898Z" fill="#35AFAC"/>
<path d="M25.5174 18.8711H0.482622C0.216077 18.8711 0 19.0905 0 19.3613V21.5096C0 21.7803 0.216077 21.9998 0.482622 21.9998H25.5174C25.7839 21.9998 26 21.7803 26 21.5096V19.3613C26 19.0905 25.7839 18.8711 25.5174 18.8711Z" fill="#35AFAC"/>
</svg>
