<svg width="21" height="21" viewBox="0 0 21 21" fill="none" xmlns="http://www.w3.org/2000/svg">
<g clip-path="url(#clip0_648_11959)">
<path d="M18.0775 3.54417L15.152 0.940799C15.1015 0.895834 15.0252 0.901606 14.9816 0.953699L7.71804 9.62912C7.67442 9.68121 7.68003 9.7599 7.73056 9.80487L10.656 12.4082C10.7065 12.4532 10.7829 12.4474 10.8265 12.3953L18.09 3.71991C18.1336 3.66781 18.128 3.58914 18.0775 3.54417Z" stroke="#35AFAC" stroke-width="1.47612" stroke-miterlimit="10"/>
<path d="M6.41066 14.0656L6.8322 9.50702C6.84092 9.45602 6.86214 9.40816 6.89384 9.36798C6.92554 9.32781 6.96666 9.29665 7.01332 9.27747C7.05998 9.25829 7.11063 9.25172 7.16044 9.25839C7.21026 9.26505 7.25759 9.28473 7.29795 9.31555L11.195 12.7831C11.2308 12.8199 11.2567 12.8656 11.2705 12.9157C11.2842 12.9659 11.2852 13.0188 11.2734 13.0695C11.2615 13.1202 11.2372 13.1668 11.2029 13.205C11.1685 13.2432 11.1252 13.2717 11.077 13.2876L6.76145 14.3817C6.71733 14.3906 6.67182 14.3889 6.6284 14.3769C6.58498 14.3649 6.54482 14.3427 6.51097 14.3122C6.47711 14.2817 6.45046 14.2437 6.43308 14.2009C6.4157 14.1582 6.40803 14.1119 6.41066 14.0656Z" fill="#35AFAC"/>
<path d="M15.4125 10.06V18.9341C15.4125 18.9994 15.3873 19.062 15.3425 19.1082C15.2977 19.1544 15.237 19.1803 15.1737 19.1803H4.01917C3.98796 19.1803 3.95705 19.1739 3.92824 19.1615C3.89944 19.1491 3.8733 19.1309 3.85136 19.108C3.82943 19.0851 3.81212 19.058 3.80045 19.0281C3.78877 18.9983 3.78296 18.9663 3.78335 18.9341V4.11259C3.78296 4.0804 3.78877 4.04846 3.80045 4.01861C3.81212 3.98876 3.82943 3.9616 3.85136 3.9387C3.8733 3.9158 3.89944 3.89762 3.92824 3.88521C3.95705 3.8728 3.98796 3.86641 4.01917 3.86641H9.36945C9.432 3.86641 9.49197 3.8408 9.5362 3.7952C9.58043 3.74961 9.60527 3.68777 9.60527 3.62329V2.28914C9.60566 2.25696 9.59984 2.22501 9.58816 2.19516C9.57648 2.16531 9.55918 2.13815 9.53724 2.11525C9.51531 2.09236 9.48919 2.07418 9.46038 2.06177C9.43158 2.04936 9.40067 2.04297 9.36945 2.04297H3.42961C3.05356 2.04297 2.69292 2.19699 2.42701 2.47113C2.1611 2.74527 2.01172 3.11708 2.01172 3.50477V19.542C2.01172 19.9297 2.1611 20.3015 2.42701 20.5756C2.69292 20.8497 3.05356 21.0038 3.42961 21.0038H15.775C16.1508 21.003 16.511 20.8487 16.7768 20.5747C17.0425 20.3007 17.1921 19.9294 17.1929 19.542V10.06C17.1929 10.0279 17.1867 9.996 17.1747 9.9663C17.1627 9.9366 17.145 9.90967 17.1228 9.88705C17.1006 9.86443 17.0743 9.84658 17.0453 9.83455C17.0163 9.82251 16.9854 9.81652 16.9542 9.81692H15.6601C15.6281 9.81528 15.5962 9.82034 15.5662 9.83182C15.5362 9.8433 15.5088 9.86095 15.4856 9.88369C15.4625 9.90643 15.444 9.93379 15.4315 9.96411C15.4189 9.99443 15.4124 10.0271 15.4125 10.06Z" fill="#35AFAC"/>
</g>
<defs>
<clipPath id="clip0_648_11959">
<rect width="21" height="21" fill="white"/>
</clipPath>
</defs>
</svg>
