<svg width="22" height="24" viewBox="0 0 22 24" fill="none" xmlns="http://www.w3.org/2000/svg">
<g clip-path="url(#clip0_299_14741)">
<path d="M2.04255 13.6773C0.985841 12.4681 0.30279 10.965 0.0797775 9.35814C-0.143235 7.75125 0.103802 6.11269 0.78965 4.64964C1.4755 3.18659 2.56936 1.96477 3.93292 1.13866C5.29647 0.312554 6.86849 -0.0807391 8.45019 0.008515C10.0319 0.0977691 11.5522 0.665567 12.819 1.6401C14.0858 2.61464 15.0421 3.95214 15.5669 5.48351C16.0918 7.01487 16.1618 8.67132 15.7679 10.2434C15.374 11.8155 14.534 13.2326 13.3541 14.3156C12.5705 15.0347 11.6563 15.5887 10.6637 15.9459C9.67117 16.303 8.61967 16.4563 7.56927 16.3971C6.51887 16.3378 5.49015 16.0671 4.54187 15.6004C3.59358 15.1338 2.74431 14.4803 2.04255 13.6773ZM11.9835 4.55871C11.2786 3.7531 10.3564 3.17971 9.33351 2.91104C8.3106 2.64237 7.23291 2.6905 6.23668 3.0493C5.24046 3.40811 4.37044 4.0615 3.73661 4.92687C3.10278 5.79225 2.7336 6.83075 2.67575 7.91108C2.6179 8.9914 2.87397 10.065 3.41159 10.9963C3.94921 11.9275 4.74425 12.6745 5.69618 13.1428C6.64811 13.6112 7.7142 13.7798 8.75965 13.6274C9.80511 13.475 10.783 13.0084 11.5697 12.2867C12.0936 11.8071 12.52 11.2263 12.8244 10.5775C13.1288 9.9288 13.3053 9.22488 13.3438 8.50613C13.3822 7.78737 13.2819 7.06791 13.0484 6.38898C12.815 5.71004 12.4531 5.08497 11.9835 4.54959V4.55871Z" fill="#35AFAC"/>
<path d="M21.8898 22.0343L12.8389 11.6844C12.6848 11.5081 12.4203 11.4933 12.2483 11.6512L10.8829 12.9047C10.7108 13.0627 10.6963 13.3336 10.8505 13.5099L19.9013 23.8598C20.0554 24.0361 20.3199 24.051 20.4919 23.893L21.8574 22.6395C22.0294 22.4816 22.0439 22.2106 21.8898 22.0343Z" fill="#35AFAC"/>
</g>
<defs>
<clipPath id="clip0_299_14741">
<rect width="22" height="24" fill="white"/>
</clipPath>
</defs>
</svg>
