<svg width="44" height="38" viewBox="0 0 44 38" fill="none" xmlns="http://www.w3.org/2000/svg">
<mask id="path-1-inside-1_0_1" fill="white">
<rect width="30" height="38" rx="2"/>
</mask>
<rect width="30" height="38" rx="2" stroke="#35AFAC" stroke-width="6" mask="url(#path-1-inside-1_0_1)"/>
<rect x="6" y="9" width="18" height="3" rx="0.5" fill="#35AFAC"/>
<rect x="6" y="25" width="18" height="3" rx="0.5" fill="#35AFAC"/>
<rect x="6" y="17" width="10" height="3" rx="0.5" fill="#35AFAC"/>
<path d="M24.0179 14.777L24.2357 14.8962C24.6994 15.1819 25.1147 15.5463 25.4629 15.9747C25.8653 16.4699 26.1694 17.0401 26.3575 17.6525C26.5455 18.265 26.6133 18.9066 26.5578 19.5403C26.5118 20.0644 26.3823 20.574 26.1756 21.0495L25.8809 21.62C25.4511 22.3307 24.8447 22.9105 24.1221 23.3016C23.3081 23.7421 22.3797 23.9253 21.4528 23.8268C20.5257 23.7282 19.6393 23.3517 18.9076 22.7405C18.1757 22.1291 17.6329 21.3114 17.3503 20.3905C17.0676 19.4696 17.0589 18.4905 17.3222 17.5778C17.5854 16.6655 18.1081 15.8616 18.8207 15.2651C19.5331 14.6687 20.4055 14.3042 21.3285 14.2167C22.2517 14.1293 23.1878 14.3227 24.0179 14.777ZM28.0019 26.5736C28.332 26.2973 28.6423 25.9993 28.931 25.6816L39.0544 31.2247C39.7643 31.6134 40.6543 31.3458 41.0278 30.6227L41.9366 28.8635C42.3014 28.1573 42.0319 27.2882 41.3384 26.9084L31.1859 21.3494C31.4274 20.2939 31.4939 19.1972 31.3779 18.1049C31.1747 16.1913 30.4201 14.3733 29.2088 12.88C27.9974 11.3866 26.3815 10.2826 24.5628 9.71108C22.7437 9.1395 20.8043 9.12677 18.9905 9.67776C17.1767 10.2288 15.5741 11.3176 14.3848 12.804C13.1958 14.2902 12.4743 16.1056 12.3073 18.0189C12.1403 19.9321 12.5348 21.8598 13.4397 23.5596C14.3446 25.2594 15.7212 26.6583 17.3983 27.5773C18.5123 28.1877 19.7316 28.5713 20.9869 28.7049C22.2424 28.8385 23.5086 28.7194 24.7129 28.3535C25.9172 27.9877 27.0348 27.3827 28.0019 26.5736Z" fill="#35AFAC" stroke="#ECF2F2" stroke-width="2"/>
</svg>
