<svg width="32" height="38" viewBox="0 0 32 38" fill="none" xmlns="http://www.w3.org/2000/svg">
<path d="M29.9935 6.41289L24.5359 1.70203C24.4417 1.62066 24.2993 1.63111 24.2179 1.72537L10.6674 17.4238C10.5861 17.518 10.5965 17.6604 10.6908 17.7418L16.1484 22.4526C16.2426 22.534 16.385 22.5235 16.4664 22.4293L30.0169 6.73089C30.0982 6.63663 30.0878 6.49426 29.9935 6.41289Z" stroke="#35AFAC" stroke-width="3.29957" stroke-miterlimit="10"/>
<path d="M8.22751 25.4514L9.0139 17.2025C9.03017 17.1102 9.06976 17.0236 9.12889 16.9509C9.18803 16.8782 9.26475 16.8219 9.3518 16.7872C9.43884 16.7524 9.53333 16.7406 9.62626 16.7526C9.71919 16.7647 9.80749 16.8003 9.88279 16.8561L17.1529 23.1307C17.2196 23.1973 17.2681 23.28 17.2937 23.3707C17.3193 23.4614 17.3212 23.5573 17.2991 23.6489C17.277 23.7406 17.2317 23.825 17.1676 23.8942C17.1035 23.9633 17.0226 24.0147 16.9329 24.0436L8.88192 26.0234C8.7996 26.0394 8.71471 26.0365 8.63371 26.0147C8.55271 25.9929 8.47778 25.9529 8.41463 25.8977C8.35148 25.8425 8.30176 25.7736 8.26933 25.6963C8.2369 25.6189 8.2226 25.5352 8.22751 25.4514Z" fill="#35AFAC"/>
<path d="M25.0212 18.2024V34.2603C25.0212 34.3784 24.9742 34.4917 24.8907 34.5753C24.8072 34.6588 24.6939 34.7057 24.5757 34.7057H3.76649C3.70825 34.7057 3.65059 34.6942 3.59685 34.6717C3.54312 34.6493 3.49436 34.6164 3.45343 34.5749C3.41251 34.5335 3.38022 34.4844 3.35844 34.4303C3.33666 34.3763 3.32583 34.3185 3.32656 34.2603V7.44034C3.32583 7.3821 3.33666 7.32429 3.35844 7.27028C3.38022 7.21627 3.41251 7.16712 3.45343 7.12568C3.49436 7.08424 3.54312 7.05135 3.59685 7.0289C3.65059 7.00644 3.70825 6.99487 3.76649 6.99488H13.7477C13.8644 6.99488 13.9763 6.94853 14.0588 6.86602C14.1413 6.78352 14.1876 6.67162 14.1876 6.55494V4.14077C14.1884 4.08253 14.1775 4.02473 14.1557 3.97071C14.1339 3.9167 14.1016 3.86755 14.0607 3.82611C14.0198 3.78468 13.9711 3.75178 13.9173 3.72933C13.8636 3.70688 13.8059 3.69531 13.7477 3.69531H2.66664C1.9651 3.69531 1.29229 3.97401 0.79623 4.47007C0.300168 4.96614 0.0214844 5.63894 0.0214844 6.34048V35.3602C0.0214844 36.0617 0.300168 36.7345 0.79623 37.2306C1.29229 37.7266 1.9651 38.0053 2.66664 38.0053H25.6976C26.3987 38.0039 27.0707 37.7247 27.5664 37.229C28.0622 36.7332 28.3413 36.0612 28.3427 35.3602V18.2024C28.3427 18.1442 28.3312 18.0865 28.3088 18.0328C28.2863 17.979 28.2534 17.9303 28.212 17.8894C28.1705 17.8484 28.1214 17.8161 28.0674 17.7944C28.0133 17.7726 27.9556 17.7617 27.8973 17.7625H25.4831C25.4235 17.7595 25.3639 17.7687 25.308 17.7894C25.252 17.8102 25.201 17.8421 25.1577 17.8833C25.1145 17.9244 25.0801 17.9739 25.0567 18.0288C25.0332 18.0837 25.0211 18.1427 25.0212 18.2024Z" fill="#35AFAC"/>
</svg>
