<svg width="24" height="24" viewBox="0 0 24 24" fill="none" xmlns="http://www.w3.org/2000/svg">
<path d="M19.995 6.68897C20.8914 6.15305 21.5622 5.3092 21.882 4.31497C21.0397 4.81477 20.118 5.16684 19.157 5.35597C17.8246 3.94649 15.7135 3.60349 14.0034 4.51862C12.2933 5.43375 11.4075 7.38046 11.841 9.27097C8.39062 9.09774 5.17598 7.46788 2.99702 4.78697C1.85986 6.74839 2.44097 9.25575 4.32502 10.517C3.64373 10.4951 2.97754 10.3106 2.38202 9.97897C2.38202 9.99697 2.38202 10.015 2.38202 10.033C2.38241 12.0761 3.82239 13.836 5.82502 14.241C5.19308 14.4129 4.53022 14.4382 3.88702 14.315C4.45022 16.0622 6.06057 17.2593 7.89602 17.295C6.37585 18.4881 4.49849 19.1351 2.56602 19.132C2.22349 19.1325 1.88123 19.1128 1.54102 19.073C3.50341 20.334 5.78738 21.0033 8.12002 21.001C11.3653 21.0233 14.484 19.7439 16.7787 17.449C19.0734 15.1541 20.3526 12.0352 20.33 8.78997C20.33 8.60397 20.3257 8.41897 20.317 8.23497C21.1575 7.62757 21.8828 6.87511 22.459 6.01297C21.676 6.36003 20.8455 6.58789 19.995 6.68897Z" fill="#3A3F3F"/>
</svg>
