<svg width="39" height="35" viewBox="0 0 39 35" fill="none" xmlns="http://www.w3.org/2000/svg">
<path d="M28.3581 20.4121C26.7804 20.4121 25.2381 19.9521 23.9262 19.0904C22.6143 18.2286 21.5919 17.0037 20.9881 15.5706C20.3843 14.1375 20.2263 12.5606 20.5341 11.0393C20.842 9.51793 21.6017 8.12049 22.7174 7.02366C23.833 5.92683 25.2544 5.17988 26.8019 4.87726C28.3493 4.57465 29.9532 4.72996 31.4109 5.32356C32.8686 5.91716 34.1144 6.92239 34.991 8.21213C35.8675 9.50186 36.3354 11.0182 36.3354 12.5693C36.3354 14.6494 35.4949 16.6442 33.9989 18.115C32.5029 19.5858 30.4738 20.4121 28.3581 20.4121ZM28.3581 7.34081C27.3063 7.34081 26.2781 7.64746 25.4035 8.22198C24.5289 8.7965 23.8473 9.61308 23.4448 10.5685C23.0423 11.5239 22.9369 12.5751 23.1421 13.5894C23.3473 14.6036 23.8538 15.5352 24.5976 16.2664C25.3414 16.9977 26.289 17.4956 27.3206 17.6974C28.3522 17.8991 29.4215 17.7956 30.3933 17.3998C31.3651 17.0041 32.1957 16.334 32.78 15.4741C33.3644 14.6143 33.6763 13.6034 33.6763 12.5693C33.6763 11.1826 33.116 9.85274 32.1187 8.87221C31.1213 7.89167 29.7686 7.34081 28.3581 7.34081Z" fill="#35AFAC"/>
<path d="M20.3817 34.2766V28.7344C20.3817 26.6543 21.2222 24.6595 22.7182 23.1887C24.2143 21.7179 26.2433 20.8916 28.359 20.8916C30.4747 20.8916 32.5038 21.7179 33.9998 23.1887C35.4958 24.6595 36.3363 26.6543 36.3363 28.7344V34.2592H38.9954V28.7344C38.9954 25.961 37.8748 23.3012 35.8801 21.3401C33.8854 19.3791 31.18 18.2773 28.359 18.2773C25.5381 18.2773 22.8327 19.3791 20.838 21.3401C18.8433 23.3012 17.7227 25.961 17.7227 28.7344V34.2592L20.3817 34.2766Z" fill="#35AFAC"/>
<path d="M10.6316 15.6855C9.05381 15.6855 7.51149 15.2256 6.19964 14.3638C4.88778 13.502 3.86531 12.2771 3.26153 10.8441C2.65775 9.41099 2.49978 7.83406 2.80758 6.31272C3.11539 4.79137 3.87515 3.39393 4.99079 2.2971C6.10643 1.20027 7.52785 0.453316 9.07529 0.150701C10.6227 -0.151914 12.2267 0.00339442 13.6843 0.596995C15.142 1.1906 16.3879 2.19583 17.2644 3.48556C18.141 4.7753 18.6088 6.29161 18.6088 7.84277C18.6088 9.9228 17.7684 11.9176 16.2723 13.3884C14.7763 14.8593 12.7473 15.6855 10.6316 15.6855ZM10.6316 2.61425C9.57973 2.61425 8.5515 2.9209 7.67693 3.49542C6.80236 4.06993 6.12073 4.88652 5.71821 5.8419C5.31569 6.79729 5.21037 7.84857 5.41558 8.8628C5.62078 9.87704 6.12728 10.8087 6.87104 11.5399C7.6148 12.2711 8.56242 12.7691 9.59405 12.9708C10.6257 13.1726 11.695 13.069 12.6668 12.6733C13.6385 12.2775 14.4691 11.6074 15.0535 10.7476C15.6379 9.88775 15.9497 8.87687 15.9497 7.84277C15.9497 6.45608 15.3894 5.12618 14.3921 4.14564C13.3947 3.16511 12.042 2.61425 10.6316 2.61425Z" fill="#35AFAC"/>
<path d="M2.65518 29.55V24.0078C2.65518 21.9278 3.49565 19.9329 4.99168 18.4621C6.48771 16.9913 8.51675 16.165 10.6325 16.165C12.7482 16.165 14.7772 16.9913 16.2732 18.4621C17.7693 19.9329 18.6097 21.9278 18.6097 24.0078V29.5326H19.2053L21.2688 24.0078C21.2688 21.2344 20.1482 18.5747 18.1535 16.6136C16.1588 14.6525 13.4534 13.5508 10.6325 13.5508C7.81152 13.5508 5.10611 14.6525 3.1114 16.6136C1.1167 18.5747 -0.00390625 21.2344 -0.00390625 24.0078V29.5326L2.65518 29.55Z" fill="#35AFAC"/>
</svg>
