<svg width="56" height="30" viewBox="0 0 56 30" fill="none" xmlns="http://www.w3.org/2000/svg">
<g clip-path="url(#clip0_0_1)">
<path d="M10.6316 15.6855C9.05381 15.6855 7.51149 15.2256 6.19964 14.3638C4.88778 13.502 3.86531 12.2771 3.26153 10.8441C2.65775 9.41099 2.49978 7.83406 2.80758 6.31272C3.11539 4.79137 3.87515 3.39393 4.99079 2.2971C6.10643 1.20027 7.52785 0.453316 9.07529 0.150701C10.6227 -0.151914 12.2267 0.00339442 13.6843 0.596995C15.142 1.1906 16.3879 2.19583 17.2644 3.48556C18.141 4.7753 18.6088 6.29161 18.6088 7.84277C18.6088 9.9228 17.7684 11.9176 16.2723 13.3884C14.7763 14.8593 12.7473 15.6855 10.6316 15.6855V15.6855ZM10.6316 2.61425C9.57973 2.61425 8.5515 2.9209 7.67693 3.49542C6.80236 4.06993 6.12073 4.88652 5.71821 5.8419C5.31569 6.79729 5.21037 7.84857 5.41558 8.8628C5.62078 9.87703 6.12728 10.8087 6.87104 11.5399C7.6148 12.2711 8.56242 12.7691 9.59405 12.9708C10.6257 13.1726 11.695 13.069 12.6668 12.6733C13.6385 12.2775 14.4691 11.6074 15.0535 10.7476C15.6379 9.88775 15.9497 8.87687 15.9497 7.84277C15.9497 6.45608 15.3894 5.12618 14.3921 4.14564C13.3947 3.16511 12.042 2.61425 10.6316 2.61425Z" fill="#35AFAC"/>
<path d="M2.65518 29.55V24.0078C2.65518 21.9278 3.49565 19.9329 4.99168 18.4621C6.48771 16.9913 8.51675 16.165 10.6325 16.165C12.7482 16.165 14.7772 16.9913 16.2732 18.4621C17.7693 19.9329 18.6097 21.9278 18.6097 24.0078V29.5326H21.2688V24.0078C21.2688 21.2344 20.1482 18.5747 18.1535 16.6136C16.1588 14.6525 13.4534 13.5508 10.6325 13.5508C7.81152 13.5508 5.10611 14.6525 3.1114 16.6136C1.1167 18.5747 -0.00390625 21.2344 -0.00390625 24.0078V29.5326L2.65518 29.55Z" fill="#35AFAC"/>
</g>
<g clip-path="url(#clip1_0_1)">
<path d="M44.6316 15.6855C43.0538 15.6855 41.5115 15.2256 40.1996 14.3638C38.8878 13.502 37.8653 12.2771 37.2615 10.8441C36.6577 9.41099 36.4998 7.83406 36.8076 6.31272C37.1154 4.79137 37.8751 3.39393 38.9908 2.2971C40.1064 1.20027 41.5279 0.453316 43.0753 0.150701C44.6227 -0.151914 46.2267 0.00339442 47.6843 0.596995C49.142 1.1906 50.3879 2.19583 51.2644 3.48556C52.141 4.7753 52.6088 6.29161 52.6088 7.84277C52.6088 9.9228 51.7684 11.9176 50.2723 13.3884C48.7763 14.8593 46.7473 15.6855 44.6316 15.6855V15.6855ZM44.6316 2.61425C43.5797 2.61425 42.5515 2.9209 41.6769 3.49542C40.8024 4.06993 40.1207 4.88652 39.7182 5.8419C39.3157 6.79729 39.2104 7.84857 39.4156 8.8628C39.6208 9.87703 40.1273 10.8087 40.871 11.5399C41.6148 12.2711 42.5624 12.7691 43.594 12.9708C44.6257 13.1726 45.695 13.069 46.6668 12.6733C47.6385 12.2775 48.4691 11.6074 49.0535 10.7476C49.6379 9.88775 49.9497 8.87687 49.9497 7.84277C49.9497 6.45608 49.3894 5.12618 48.3921 4.14564C47.3947 3.16511 46.042 2.61425 44.6316 2.61425Z" fill="#35AFAC"/>
<path d="M36.6552 29.55V24.0078C36.6552 21.9278 37.4957 19.9329 38.9917 18.4621C40.4877 16.9913 42.5168 16.165 44.6325 16.165C46.7482 16.165 48.7772 16.9913 50.2732 18.4621C51.7693 19.9329 52.6097 21.9278 52.6097 24.0078V29.5326H55.2688V24.0078C55.2688 21.2344 54.1482 18.5747 52.1535 16.6136C50.1588 14.6525 47.4534 13.5508 44.6325 13.5508C41.8115 13.5508 39.1061 14.6525 37.1114 16.6136C35.1167 18.5747 33.9961 21.2344 33.9961 24.0078V29.5326L36.6552 29.55Z" fill="#35AFAC"/>
</g>
<rect x="23" y="12" width="10" height="3" fill="#35AFAC"/>
<rect x="26.5" y="18.5" width="10" height="3" transform="rotate(-90 26.5 18.5)" fill="#35AFAC"/>
<defs>
<clipPath id="clip0_0_1">
<rect width="21.2727" height="29.5455" fill="white"/>
</clipPath>
<clipPath id="clip1_0_1">
<rect width="21.2727" height="29.5455" fill="white" transform="translate(34)"/>
</clipPath>
</defs>
</svg>
