<svg width="15" height="10" viewBox="0 0 15 10" fill="none" xmlns="http://www.w3.org/2000/svg">
<g clip-path="url(#clip0_648_11934)">
<path d="M6.49142 0.887892L0.0575071 8.68703C-0.05839 8.82752 -0.0214487 9.02315 0.140018 9.12399L1.42143 9.92427C1.58289 10.0251 1.80774 9.99297 1.92364 9.85248L8.35755 2.05335C8.47344 1.91286 8.4365 1.71722 8.27504 1.61638L6.99363 0.816101C6.83216 0.71526 6.60731 0.747402 6.49142 0.887892Z" fill="#35AFAC"/>
<path d="M14.9133 8.70586L8.47938 0.906723C8.36348 0.766234 8.13864 0.734092 7.97717 0.834932L6.69576 1.63521C6.5343 1.73605 6.49735 1.93169 6.61325 2.07218L13.0472 9.87131C13.1631 10.0118 13.3879 10.0439 13.5494 9.9431L14.8308 9.14283C14.9922 9.04199 15.0292 8.84635 14.9133 8.70586Z" fill="#35AFAC"/>
<path d="M6.76015 0.596674L5.70349 1.87583C5.71649 1.91007 5.74168 1.93981 5.77541 1.96077C5.80913 1.98173 5.84964 1.99282 5.89109 1.99241L9.08404 1.99241C9.13037 1.99304 9.17546 1.97933 9.21123 1.9537C9.247 1.92807 9.27113 1.8922 9.2793 1.85251L8.41789 0.813204L7.76322 0.123661C7.72948 0.0874724 7.68687 0.0582919 7.63852 0.0382488C7.59017 0.0182056 7.53729 0.0078125 7.48374 0.0078125C7.43018 0.0078125 7.3773 0.0182056 7.32895 0.0382488C7.2806 0.0582919 7.23799 0.0874724 7.20425 0.123661L6.76015 0.596674Z" fill="#35AFAC"/>
</g>
<defs>
<clipPath id="clip0_648_11934">
<rect width="10" height="15" fill="white" transform="translate(15) rotate(90)"/>
</clipPath>
</defs>
</svg>
