<svg width="414" height="605" viewBox="0 0 414 605" fill="none" xmlns="http://www.w3.org/2000/svg">
<mask id="mask0_648_11779" style="mask-type:alpha" maskUnits="userSpaceOnUse" x="64" y="0" width="350" height="457">
<g clip-path="url(#clip0_648_11779)">
<path d="M191.254 382.342C141.025 381.497 104.885 349.851 103.376 348.524C91.8849 338.438 82.5512 326.133 75.9362 312.348C69.3212 298.563 65.5613 283.583 64.8826 268.309C64.8528 267.428 65.0034 266.552 65.3251 265.732C65.6467 264.912 66.1327 264.167 66.753 263.542C67.4439 262.857 68.2633 262.315 69.1641 261.948C70.0648 261.58 71.0293 261.394 72.0021 261.4H92.4556C94.2542 261.327 96.009 261.967 97.3371 263.182C98.6653 264.397 99.4589 266.088 99.545 267.886C99.8883 278.881 102.455 289.692 107.09 299.667C111.725 309.643 118.333 318.576 126.515 325.928C126.786 326.2 154.872 351.329 193.366 351.329H198.494V377.334L192.732 382.432L191.254 382.342Z" fill="#3A3F3F"/>
<path d="M194.785 354.951H193.367C154.663 354.951 126.366 330.817 123.982 328.584C115.42 320.917 108.509 311.587 103.67 301.162C98.8308 290.737 96.1654 279.436 95.836 267.948C95.7816 267.102 95.3968 266.312 94.7647 265.747C94.1325 265.183 93.3037 264.89 92.4573 264.931H72.0037C71.5828 264.903 71.1603 264.958 70.7612 265.095C70.3621 265.232 69.9944 265.448 69.6797 265.729C69.3649 266.01 69.1095 266.351 68.9284 266.732C68.7472 267.113 68.6441 267.526 68.625 267.948C69.2884 282.732 72.9303 297.231 79.3323 310.574C85.7343 323.917 94.7646 335.83 105.882 345.599C109.894 349.189 144.164 377.697 191.316 378.481L194.785 375.465V354.951Z" fill="#3A3F3F"/>
<path d="M190.893 377.183V351.179H196.021C234.515 351.179 262.601 326.019 262.872 325.778C271.046 318.419 277.648 309.484 282.282 299.51C286.917 289.536 289.488 278.728 289.842 267.736C289.943 265.941 290.74 264.256 292.064 263.039C293.388 261.822 295.134 261.169 296.931 261.219H317.385C318.36 261.214 319.327 261.403 320.228 261.776C321.13 262.149 321.947 262.698 322.634 263.392C323.254 264.009 323.738 264.749 324.055 265.565C324.372 266.381 324.515 267.254 324.474 268.128C323.826 283.423 320.083 298.428 313.472 312.236C306.861 326.044 297.519 338.368 286.011 348.464C284.502 349.791 248.362 381.407 198.133 382.281H196.655L190.893 377.183Z" fill="#3A3F3F"/>
<path d="M194.604 354.89H196.021C234.726 354.89 263.023 330.756 265.407 328.524C273.969 320.857 280.88 311.527 285.719 301.102C290.558 290.677 293.223 279.376 293.553 267.887C293.576 267.467 293.682 267.056 293.864 266.677C294.047 266.297 294.302 265.958 294.616 265.678C294.93 265.397 295.296 265.182 295.693 265.043C296.091 264.905 296.511 264.846 296.931 264.871H317.385C317.805 264.846 318.226 264.905 318.623 265.043C319.021 265.182 319.387 265.397 319.701 265.678C320.014 265.958 320.27 266.297 320.452 266.677C320.635 267.056 320.741 267.467 320.764 267.887C320.101 282.676 316.459 297.179 310.058 310.528C303.656 323.876 294.625 335.794 283.507 345.569C279.495 349.128 245.224 377.637 198.073 378.451L194.604 375.434V354.89Z" fill="#3A3F3F"/>
<path d="M212.553 431.545V374.347C212.553 371.665 210.378 369.49 207.696 369.49H181.541C178.858 369.49 176.684 371.665 176.684 374.347V431.545C176.684 434.227 178.858 436.402 181.541 436.402H207.696C210.378 436.402 212.553 434.227 212.553 431.545Z" fill="#3A3F3F"/>
<path d="M205.765 373.141H183.441C181.759 373.141 180.395 374.505 180.395 376.188V429.705C180.395 431.387 181.759 432.751 183.441 432.751H205.765C207.448 432.751 208.812 431.387 208.812 429.705V376.188C208.812 374.505 207.448 373.141 205.765 373.141Z" fill="#3A3F3F"/>
<path d="M248.633 451.546V428.619C248.633 425.936 246.458 423.762 243.776 423.762H145.732C143.049 423.762 140.875 425.936 140.875 428.619V451.546C140.875 454.228 143.049 456.403 145.732 456.403H243.776C246.458 456.403 248.633 454.228 248.633 451.546Z" fill="#3A3F3F"/>
<path d="M144.615 430.429V449.676C144.615 451.358 145.979 452.723 147.662 452.723H241.875C243.558 452.723 244.922 451.358 244.922 449.676V430.429C244.922 428.746 243.558 427.382 241.875 427.382H147.662C145.979 427.382 144.615 428.746 144.615 430.429Z" fill="#3A3F3F"/>
<path d="M194.995 328.102C175.537 328.102 159.699 322.219 147.964 310.605C136.229 298.99 130.256 283.303 130.256 264.056V125.859C130.256 106.612 136.289 90.9855 147.964 79.3408C159.639 67.6962 175.537 61.8438 194.995 61.8438C214.453 61.8438 230.351 67.8772 242.237 79.5218C254.123 91.1665 260.127 106.974 260.127 126.221L260.368 135.452C260.444 136.426 260.309 137.405 259.973 138.323C259.637 139.241 259.108 140.075 258.422 140.77C257.735 141.466 256.907 142.005 255.994 142.352C255.08 142.7 254.103 142.846 253.128 142.783H234.726C233.758 142.85 232.786 142.709 231.878 142.368C230.969 142.028 230.144 141.497 229.457 140.811C228.771 140.125 228.24 139.3 227.9 138.391C227.56 137.482 227.419 136.511 227.486 135.543L227.244 125.587C227.489 121.054 226.837 116.517 225.326 112.236C223.814 107.954 221.473 104.014 218.435 100.639C212.099 94.7154 203.739 91.4351 195.065 91.4688C186.391 91.5024 178.057 94.8474 171.766 100.82C168.702 104.125 166.324 108.006 164.771 112.236C163.217 116.467 162.519 120.964 162.716 125.467V264.388C162.515 268.891 163.212 273.389 164.766 277.62C166.32 281.852 168.699 285.732 171.766 289.035C178.057 295.007 186.391 298.352 195.065 298.386C203.739 298.42 212.099 295.139 218.435 289.216C224.534 282.429 227.691 273.5 227.214 264.388L227.697 227.282H198.796C197.828 227.349 196.857 227.208 195.948 226.868C195.04 226.527 194.214 225.996 193.528 225.31C192.842 224.624 192.311 223.799 191.971 222.89C191.63 221.981 191.489 221.01 191.556 220.042V204.958C191.489 203.99 191.63 203.019 191.971 202.11C192.311 201.201 192.842 200.376 193.528 199.69C194.214 199.004 195.04 198.473 195.948 198.132C196.857 197.792 197.828 197.651 198.796 197.718H253.43C254.396 197.65 255.366 197.792 256.274 198.132C257.181 198.472 258.005 199.004 258.689 199.691C259.373 200.377 259.901 201.203 260.237 202.112C260.574 203.021 260.711 203.992 260.64 204.958L260.127 264.147C260.127 283.393 254.093 299.05 242.207 310.665C230.321 322.279 214.483 328.102 194.995 328.102Z" fill="#3A3F3F"/>
<path d="M150.497 308.009C139.396 297.028 133.855 282.377 133.875 264.055V125.858C133.875 107.536 139.416 92.8852 150.497 81.9042C161.579 70.9233 176.411 65.4428 194.994 65.4629C213.577 65.4629 228.47 71.0037 239.672 82.0852C250.875 93.1667 256.486 107.878 256.506 126.22L256.747 135.542C256.818 136.034 256.773 136.535 256.616 137.007C256.459 137.478 256.194 137.907 255.843 138.258C255.492 138.609 255.063 138.874 254.592 139.031C254.12 139.188 253.619 139.233 253.127 139.162H234.725C234.233 139.233 233.731 139.188 233.26 139.031C232.789 138.874 232.36 138.609 232.009 138.258C231.658 137.907 231.393 137.478 231.236 137.007C231.079 136.535 231.034 136.034 231.105 135.542L230.833 125.496C231.312 115.467 227.81 105.654 221.089 98.1946C214.073 91.5414 204.763 87.8479 195.094 87.8816C185.425 87.9153 176.141 91.6737 169.171 98.3756C162.388 105.75 158.808 115.515 159.216 125.526V264.447C158.811 274.458 162.391 284.222 169.171 291.598C176.167 298.269 185.463 301.99 195.13 301.99C204.797 301.99 214.093 298.269 221.089 291.598C227.784 284.183 231.285 274.427 230.833 264.447L231.376 225.23C231.407 225.033 231.391 224.831 231.329 224.641C231.267 224.451 231.162 224.279 231.02 224.138C230.879 223.996 230.707 223.891 230.517 223.829C230.327 223.767 230.125 223.751 229.928 223.782H198.795C198.304 223.852 197.802 223.807 197.331 223.651C196.859 223.494 196.431 223.229 196.079 222.878C195.728 222.526 195.463 222.098 195.306 221.626C195.15 221.155 195.105 220.653 195.175 220.162V205.078C195.105 204.586 195.15 204.085 195.306 203.613C195.463 203.142 195.728 202.713 196.079 202.362C196.431 202.011 196.859 201.746 197.331 201.589C197.802 201.432 198.304 201.387 198.795 201.458H253.429C253.918 201.392 254.416 201.441 254.884 201.6C255.351 201.76 255.776 202.025 256.123 202.376C256.471 202.726 256.733 203.153 256.888 203.622C257.044 204.09 257.088 204.589 257.019 205.078L256.506 264.236C256.506 282.578 250.895 297.229 239.672 308.19C228.45 319.151 213.557 324.642 194.994 324.662C176.451 324.541 161.619 318.99 150.497 308.009Z" fill="#3A3F3F"/>
<path d="M285.799 194.7V163.597H370.268C371.146 163.567 372.02 163.729 372.829 164.072C373.639 164.415 374.363 164.931 374.952 165.583C375.541 166.236 375.981 167.009 376.24 167.849C376.499 168.688 376.571 169.575 376.452 170.445V187.852C376.571 188.723 376.499 189.609 376.24 190.449C375.981 191.288 375.541 192.062 374.952 192.714C374.363 193.366 373.639 193.882 372.829 194.225C372.02 194.568 371.146 194.73 370.268 194.7H285.799Z" fill="#3A3F3F"/>
<path d="M370.177 167.67H289.51V190.627H370.177C371.837 190.627 372.651 189.692 372.651 187.852V170.445C372.651 168.605 371.837 167.67 370.177 167.67Z" fill="#3A3F3F"/>
<path d="M281.726 194.701C280.851 194.709 279.985 194.533 279.183 194.184C278.381 193.835 277.661 193.32 277.072 192.674C276.482 192.027 276.036 191.264 275.762 190.433C275.488 189.602 275.392 188.723 275.482 187.853V170.446C275.392 169.576 275.488 168.696 275.762 167.866C276.036 167.035 276.482 166.271 277.072 165.625C277.661 164.978 278.381 164.464 279.183 164.114C279.985 163.765 280.851 163.589 281.726 163.598H367.794V194.701H281.726Z" fill="#3A3F3F"/>
<path d="M304.412 112.705V81.693H388.881C389.759 81.6629 390.634 81.8251 391.443 82.1681C392.252 82.5112 392.976 83.0268 393.565 83.6791C394.154 84.3313 394.594 85.1044 394.853 85.9442C395.112 86.784 395.184 87.6702 395.065 88.541V105.948C395.184 106.818 395.112 107.705 394.853 108.544C394.594 109.384 394.154 110.157 393.565 110.81C392.976 111.462 392.252 111.977 391.443 112.32C390.634 112.664 389.759 112.826 388.881 112.796L304.412 112.705Z" fill="#3A3F3F"/>
<path d="M388.791 85.7656H308.123V108.723H388.791C390.45 108.723 391.265 107.818 391.265 105.948V88.5712C391.265 86.7008 390.45 85.7656 388.791 85.7656Z" fill="#3A3F3F"/>
<path d="M300.34 112.705C299.465 112.714 298.598 112.538 297.796 112.188C296.994 111.839 296.274 111.325 295.685 110.678C295.096 110.032 294.649 109.268 294.375 108.437C294.101 107.606 294.006 106.727 294.095 105.857V88.5709C294.006 87.7007 294.101 86.8214 294.375 85.9906C294.649 85.1598 295.096 84.3962 295.685 83.7498C296.274 83.1033 296.994 82.5886 297.796 82.2394C298.598 81.8901 299.465 81.7142 300.34 81.723H386.407V112.705H300.34Z" fill="#3A3F3F"/>
<path d="M323.025 31.2531V-0.00036933H407.494C408.373 -0.0304563 409.247 0.131706 410.056 0.474772C410.865 0.817838 411.59 1.33348 412.179 1.98572C412.768 2.63797 413.207 3.41107 413.466 4.25086C413.725 5.09065 413.798 5.97687 413.679 6.84761V24.2542C413.798 25.1249 413.725 26.0112 413.466 26.851C413.207 27.6908 412.768 28.4638 412.179 29.1161C411.59 29.7683 410.865 30.2841 410.056 30.6271C409.247 30.9702 408.373 31.1323 407.494 31.1023L323.025 31.2531Z" fill="#3A3F3F"/>
<path d="M407.404 4.10352H326.736V27.0609H407.404C409.063 27.0609 409.878 26.1258 409.878 24.2855V6.87896C409.878 5.00858 409.063 4.10352 407.404 4.10352Z" fill="#3A3F3F"/>
<path d="M318.953 31.2533C318.078 31.2621 317.211 31.0861 316.409 30.7369C315.607 30.3876 314.888 29.873 314.298 29.2266C313.709 28.5801 313.263 27.8165 312.989 26.9857C312.715 26.1549 312.619 25.2756 312.708 24.4054V6.99868C312.619 6.12842 312.715 5.24913 312.989 4.41832C313.263 3.58751 313.709 2.82391 314.298 2.17749C314.888 1.53107 315.607 1.01645 316.409 0.667183C317.211 0.317915 318.078 0.141897 318.953 0.150706H405.021V31.2533H318.953Z" fill="#3A3F3F"/>
</g>
</mask>
<g mask="url(#mask0_648_11779)">
<rect x="-58.8047" y="-144.805" width="699.885" height="929.157" fill="#35AFAC"/>
</g>
<mask id="mask1_648_11779" style="mask-type:alpha" maskUnits="userSpaceOnUse" x="0" y="519" width="399" height="86">
<g clip-path="url(#clip1_648_11779)">
<path d="M5.93236 599.112C1.98586 595.275 0.0084147 590.2 0 583.889V540.04C0 533.729 1.97745 528.66 5.93236 524.831C9.88727 521.002 15.1002 519.088 21.5711 519.088C28.042 519.088 33.2759 521.006 37.2729 524.844C41.2699 528.681 43.26 533.788 43.2431 540.167V545.216C43.2691 545.379 43.256 545.546 43.2049 545.703C43.1539 545.861 43.0662 546.004 42.9493 546.121C42.8323 546.238 42.6893 546.325 42.5319 546.376C42.3746 546.428 42.2074 546.441 42.044 546.415H32.9435C32.7807 546.438 32.6146 546.423 32.4586 546.371C32.3025 546.319 32.1607 546.231 32.0444 546.115C31.9281 545.998 31.8404 545.857 31.7884 545.7C31.7363 545.544 31.7213 545.378 31.7444 545.216V539.952C31.8838 537.047 30.8725 534.203 28.9297 532.038C26.9555 530.12 24.3112 529.047 21.5585 529.047C18.8057 529.047 16.1614 530.12 14.1872 532.038C12.2504 534.207 11.24 537.048 11.3725 539.952V584.041C11.2555 586.936 12.2746 589.763 14.2124 591.917C16.1835 593.841 18.829 594.919 21.5837 594.919C24.3384 594.919 26.9839 593.841 28.955 591.917C30.8958 589.756 31.907 586.917 31.7697 584.016V570.838C31.7807 570.773 31.7758 570.706 31.7556 570.642C31.7354 570.579 31.7003 570.522 31.6534 570.475C31.6065 570.428 31.549 570.393 31.4858 570.373C31.4226 570.353 31.3555 570.348 31.29 570.359H22.1896C22.0267 570.382 21.8607 570.367 21.7046 570.315C21.5485 570.263 21.4067 570.175 21.2904 570.059C21.1741 569.942 21.0864 569.801 21.0344 569.644C20.9823 569.488 20.9673 569.322 20.9905 569.16V561.725C20.9673 561.562 20.9823 561.396 21.0344 561.24C21.0864 561.084 21.1741 560.942 21.2904 560.826C21.4067 560.71 21.5485 560.622 21.7046 560.57C21.8607 560.518 22.0267 560.503 22.1896 560.526H42.0693C42.2322 560.503 42.3982 560.518 42.5542 560.57C42.7103 560.622 42.8521 560.71 42.9684 560.826C43.0847 560.942 43.1724 561.084 43.2245 561.24C43.2765 561.396 43.2916 561.562 43.2684 561.725V583.889C43.2684 590.2 41.2741 595.275 37.2855 599.112C33.297 602.949 28.0588 604.884 21.5711 604.918C15.1086 604.918 9.89568 602.982 5.93236 599.112Z" fill="#3A3F3F"/>
<path d="M63.4368 598.33C59.4819 593.98 57.5044 588.249 57.5044 581.139V521.235C57.4785 521.066 57.4939 520.893 57.5492 520.731C57.6045 520.569 57.6982 520.423 57.8222 520.305C57.9462 520.187 58.0968 520.101 58.2613 520.054C58.4258 520.007 58.5991 520.001 58.7666 520.036H67.8798C68.0417 520.015 68.2062 520.031 68.3607 520.084C68.5151 520.137 68.6552 520.225 68.77 520.341C68.8848 520.457 68.9713 520.598 69.0227 520.753C69.0741 520.908 69.089 521.073 69.0662 521.235V582.338C68.9121 585.609 69.9129 588.831 71.8936 591.438C72.76 592.557 73.8779 593.455 75.1564 594.06C76.435 594.665 77.8382 594.961 79.2522 594.922C80.6875 594.97 82.1138 594.679 83.4162 594.074C84.7185 593.469 85.8604 592.566 86.7497 591.438C88.7211 588.826 89.7168 585.607 89.5645 582.338V521.235C89.5413 521.072 89.5563 520.906 89.6084 520.75C89.6604 520.594 89.7481 520.452 89.8644 520.335C89.9807 520.219 90.1225 520.132 90.2786 520.079C90.4346 520.027 90.6007 520.012 90.7635 520.036H99.864C100.027 520.012 100.193 520.027 100.349 520.079C100.505 520.132 100.647 520.219 100.763 520.335C100.879 520.452 100.967 520.594 101.019 520.75C101.071 520.906 101.086 521.072 101.063 521.235V581.139C101.063 588.241 99.0646 593.971 95.0676 598.33C93.0612 600.513 90.604 602.232 87.8665 603.37C85.1289 604.508 82.1766 605.036 79.2144 604.919C72.6677 604.919 67.4085 602.723 63.4368 598.33Z" fill="#3A3F3F"/>
<path d="M175.94 598.935C172.065 594.972 170.133 589.81 170.133 583.41V580.305C170.108 580.143 170.121 579.977 170.171 579.821C170.222 579.665 170.308 579.523 170.424 579.406C170.539 579.289 170.68 579.201 170.836 579.149C170.992 579.097 171.157 579.082 171.32 579.106H180.155C180.318 579.083 180.484 579.098 180.64 579.15C180.796 579.202 180.938 579.29 181.054 579.406C181.171 579.522 181.258 579.664 181.311 579.82C181.363 579.976 181.378 580.142 181.354 580.305V582.83C181.181 586.01 182.158 589.146 184.106 591.665C184.954 592.718 186.032 593.563 187.257 594.134C188.483 594.705 189.823 594.988 191.174 594.959C192.525 594.991 193.865 594.722 195.098 594.172C196.331 593.621 197.427 592.804 198.306 591.779C200.261 589.456 201.266 586.48 201.121 583.448C201.162 581.315 200.644 579.209 199.619 577.339C198.589 575.542 197.252 573.94 195.668 572.606C194.027 571.217 191.372 569.16 187.703 566.434C184.374 564.008 181.173 561.413 178.111 558.658C175.73 556.406 173.746 553.769 172.241 550.858C170.589 547.555 169.77 543.897 169.856 540.205C169.856 533.734 171.77 528.601 175.599 524.806C177.583 522.884 179.939 521.385 182.521 520.402C185.103 519.419 187.858 518.972 190.619 519.088C197.006 519.088 202.139 521.125 206.018 525.197C209.897 529.27 211.832 534.622 211.824 541.253V544.244C211.847 544.407 211.832 544.573 211.78 544.729C211.728 544.885 211.64 545.027 211.524 545.143C211.408 545.259 211.266 545.347 211.11 545.399C210.954 545.451 210.788 545.466 210.625 545.443H201.79C201.626 545.469 201.459 545.456 201.302 545.405C201.144 545.354 201.001 545.266 200.884 545.149C200.767 545.032 200.68 544.889 200.629 544.732C200.578 544.575 200.564 544.407 200.59 544.244V541.013C200.742 537.88 199.761 534.797 197.826 532.329C196.963 531.264 195.866 530.413 194.62 529.842C193.375 529.271 192.014 528.994 190.644 529.034C189.361 528.991 188.083 529.23 186.903 529.736C185.723 530.242 184.669 531.003 183.816 531.963C181.933 534.272 180.991 537.206 181.178 540.18C181.083 543.098 182.017 545.958 183.816 548.258C186.846 551.595 190.261 554.561 193.989 557.093C198.785 560.695 202.404 563.61 204.844 565.84C207.162 567.927 209.071 570.426 210.473 573.212C211.849 576.192 212.523 579.447 212.443 582.729C212.443 589.46 210.486 594.833 206.573 598.847C204.58 600.869 202.186 602.452 199.545 603.495C196.904 604.538 194.075 605.019 191.238 604.906C184.91 604.914 179.81 602.924 175.94 598.935Z" fill="#3A3F3F"/>
<path d="M268.509 521.235V528.808C268.535 528.977 268.519 529.15 268.464 529.312C268.409 529.474 268.315 529.62 268.191 529.737C268.067 529.855 267.916 529.941 267.752 529.988C267.587 530.035 267.414 530.042 267.247 530.007H251.62C251.555 529.996 251.488 530.001 251.425 530.021C251.361 530.041 251.304 530.076 251.257 530.123C251.21 530.17 251.175 530.228 251.155 530.291C251.135 530.354 251.13 530.421 251.141 530.487V602.735C251.164 602.898 251.149 603.064 251.097 603.22C251.045 603.376 250.957 603.518 250.841 603.634C250.724 603.751 250.583 603.838 250.427 603.891C250.271 603.943 250.105 603.958 249.942 603.934H240.829C240.661 603.969 240.488 603.962 240.323 603.916C240.159 603.869 240.008 603.783 239.884 603.665C239.76 603.547 239.666 603.401 239.611 603.239C239.556 603.077 239.54 602.904 239.566 602.735V530.449C239.577 530.383 239.572 530.316 239.552 530.253C239.532 530.19 239.497 530.132 239.45 530.086C239.403 530.039 239.346 530.004 239.282 529.983C239.219 529.963 239.152 529.958 239.087 529.969H224.294C224.131 529.992 223.965 529.977 223.809 529.925C223.653 529.873 223.511 529.786 223.395 529.669C223.278 529.553 223.191 529.411 223.138 529.255C223.086 529.099 223.071 528.933 223.095 528.77V521.197C223.071 521.034 223.086 520.868 223.138 520.712C223.191 520.556 223.278 520.414 223.395 520.298C223.511 520.181 223.653 520.094 223.809 520.042C223.965 519.99 224.131 519.975 224.294 519.998H267.31C267.476 519.973 267.646 519.988 267.806 520.042C267.965 520.096 268.109 520.188 268.227 520.309C268.344 520.429 268.43 520.577 268.48 520.738C268.529 520.899 268.539 521.069 268.509 521.235Z" fill="#3A3F3F"/>
<path d="M333.462 520.036H342.563C342.725 520.013 342.891 520.028 343.048 520.08C343.204 520.132 343.345 520.22 343.462 520.336C343.578 520.452 343.666 520.594 343.718 520.75C343.77 520.906 343.785 521.072 343.762 521.235V602.71C343.785 602.873 343.77 603.039 343.718 603.195C343.666 603.351 343.578 603.493 343.462 603.609C343.345 603.726 343.204 603.814 343.048 603.866C342.891 603.918 342.725 603.933 342.563 603.909H333.462C333.299 603.933 333.133 603.918 332.977 603.866C332.821 603.814 332.679 603.726 332.563 603.609C332.447 603.493 332.359 603.351 332.307 603.195C332.255 603.039 332.24 602.873 332.263 602.71V543.273C332.263 543.033 332.2 542.92 332.086 542.92C331.918 542.941 331.764 543.027 331.657 543.16L320.158 564.617C320.092 564.853 319.952 565.062 319.76 565.214C319.567 565.366 319.331 565.453 319.086 565.463C318.839 565.452 318.602 565.365 318.408 565.213C318.213 565.062 318.071 564.853 318 564.617L306.64 543.286C306.537 543.156 306.388 543.07 306.224 543.046C306.11 543.046 306.047 543.172 306.047 543.412V602.736C306.07 602.898 306.055 603.065 306.003 603.221C305.951 603.377 305.863 603.518 305.747 603.635C305.631 603.751 305.489 603.839 305.333 603.891C305.177 603.943 305.011 603.958 304.848 603.935H295.684C295.521 603.958 295.355 603.943 295.199 603.891C295.043 603.839 294.902 603.751 294.785 603.635C294.669 603.518 294.581 603.377 294.529 603.221C294.477 603.065 294.462 602.898 294.485 602.736V521.235C294.462 521.072 294.477 520.906 294.529 520.75C294.581 520.594 294.669 520.452 294.785 520.336C294.902 520.22 295.043 520.132 295.199 520.08C295.355 520.028 295.521 520.013 295.684 520.036H304.785C305.075 520.045 305.358 520.126 305.609 520.271C305.86 520.417 306.071 520.622 306.224 520.869L318.846 543.399C318.894 543.441 318.95 543.472 319.011 543.492C319.072 543.511 319.136 543.518 319.199 543.513C319.331 543.522 319.462 543.482 319.565 543.399L332.023 520.869C332.159 520.608 332.367 520.391 332.622 520.244C332.876 520.096 333.168 520.024 333.462 520.036Z" fill="#3A3F3F"/>
<path d="M155.995 523.102H117.637V533.049H155.995C156.157 533.07 156.321 533.054 156.475 533.001C156.629 532.948 156.768 532.86 156.882 532.743C156.996 532.627 157.082 532.485 157.131 532.33C157.181 532.175 157.194 532.011 157.169 531.85V524.276C157.19 524.117 157.173 523.956 157.122 523.804C157.07 523.652 156.984 523.514 156.871 523.401C156.757 523.287 156.619 523.201 156.468 523.15C156.316 523.098 156.154 523.082 155.995 523.102Z" fill="#3A3F3F"/>
<path d="M117.007 523.102H156.135V533.048H117.007C116.844 533.071 116.678 533.056 116.522 533.004C116.366 532.952 116.224 532.864 116.107 532.748C115.991 532.632 115.903 532.49 115.851 532.334C115.799 532.178 115.784 532.012 115.807 531.849V524.276C115.789 524.115 115.807 523.952 115.861 523.799C115.915 523.646 116.003 523.508 116.119 523.394C116.235 523.281 116.375 523.196 116.529 523.145C116.683 523.094 116.846 523.08 117.007 523.102Z" fill="#3A3F3F"/>
<path d="M155.995 557.485H117.637V567.431H155.995C156.157 567.453 156.321 567.437 156.475 567.384C156.629 567.331 156.768 567.242 156.882 567.126C156.996 567.009 157.082 566.868 157.131 566.713C157.181 566.558 157.194 566.393 157.169 566.232V558.659C157.19 558.5 157.173 558.338 157.122 558.187C157.07 558.035 156.984 557.897 156.871 557.783C156.757 557.67 156.619 557.584 156.468 557.532C156.316 557.481 156.154 557.465 155.995 557.485Z" fill="#3A3F3F"/>
<path d="M117.007 557.485H156.135V567.431H117.007C116.844 567.454 116.678 567.439 116.522 567.387C116.366 567.335 116.224 567.247 116.107 567.131C115.991 567.015 115.903 566.873 115.851 566.717C115.799 566.561 115.784 566.395 115.807 566.232V558.659C115.789 558.498 115.807 558.335 115.861 558.182C115.915 558.029 116.003 557.891 116.119 557.777C116.235 557.664 116.375 557.579 116.529 557.528C116.683 557.477 116.846 557.462 117.007 557.485Z" fill="#3A3F3F"/>
<path d="M155.995 591.867H117.637V601.813H155.995C156.163 601.838 156.334 601.821 156.494 601.765C156.654 601.709 156.798 601.614 156.913 601.49C157.028 601.366 157.112 601.216 157.157 601.052C157.201 600.889 157.205 600.717 157.169 600.551V592.978C157.179 592.824 157.156 592.669 157.099 592.526C157.043 592.382 156.956 592.252 156.844 592.146C156.732 592.04 156.597 591.96 156.451 591.912C156.304 591.863 156.148 591.848 155.995 591.867Z" fill="#3A3F3F"/>
<path d="M117.006 591.867H156.134V601.813H117.006C116.837 601.839 116.664 601.824 116.502 601.768C116.341 601.713 116.195 601.619 116.077 601.495C115.959 601.371 115.873 601.221 115.826 601.056C115.779 600.892 115.772 600.718 115.807 600.551V592.978C115.798 592.822 115.824 592.666 115.882 592.521C115.941 592.376 116.031 592.246 116.145 592.14C116.26 592.034 116.396 591.954 116.545 591.907C116.694 591.86 116.851 591.846 117.006 591.867Z" fill="#3A3F3F"/>
<path d="M397.81 522.509H359.451V532.455H397.81C397.971 532.476 398.135 532.46 398.289 532.407C398.443 532.354 398.583 532.266 398.697 532.149C398.811 532.033 398.896 531.892 398.946 531.736C398.996 531.581 399.008 531.417 398.983 531.256V523.683C399.004 523.524 398.988 523.362 398.936 523.21C398.885 523.058 398.799 522.92 398.685 522.807C398.572 522.693 398.434 522.608 398.282 522.556C398.13 522.504 397.969 522.488 397.81 522.509Z" fill="#3A3F3F"/>
<path d="M358.794 522.51H397.922V532.456H358.794C358.631 532.479 358.465 532.464 358.309 532.412C358.153 532.36 358.011 532.273 357.895 532.156C357.778 532.04 357.691 531.898 357.638 531.742C357.586 531.586 357.571 531.42 357.595 531.257V523.684C357.576 523.523 357.594 523.36 357.648 523.207C357.702 523.054 357.79 522.916 357.906 522.803C358.022 522.689 358.162 522.604 358.316 522.553C358.47 522.503 358.633 522.488 358.794 522.51Z" fill="#3A3F3F"/>
<path d="M397.81 556.954H359.451V566.9H397.81C397.971 566.922 398.135 566.905 398.289 566.852C398.443 566.799 398.583 566.711 398.697 566.595C398.811 566.478 398.896 566.337 398.946 566.182C398.996 566.027 399.008 565.862 398.983 565.701V558.128C399.004 557.969 398.988 557.807 398.936 557.655C398.885 557.503 398.799 557.366 398.685 557.252C398.572 557.139 398.434 557.053 398.282 557.001C398.13 556.95 397.969 556.933 397.81 556.954Z" fill="#3A3F3F"/>
<path d="M358.794 556.955H397.922V566.902H358.794C358.631 566.925 358.465 566.91 358.309 566.858C358.153 566.806 358.011 566.718 357.895 566.602C357.778 566.485 357.691 566.344 357.638 566.187C357.586 566.031 357.571 565.865 357.595 565.702V558.129C357.576 557.968 357.594 557.805 357.648 557.652C357.702 557.5 357.79 557.361 357.906 557.248C358.022 557.135 358.162 557.049 358.316 556.999C358.47 556.948 358.633 556.933 358.794 556.955Z" fill="#3A3F3F"/>
<path d="M397.81 591.274H359.451V601.221H397.81C397.971 601.242 398.135 601.226 398.289 601.173C398.443 601.12 398.583 601.031 398.697 600.915C398.811 600.799 398.896 600.657 398.946 600.502C398.996 600.347 399.008 600.182 398.983 600.021V592.448C399.004 592.289 398.988 592.127 398.936 591.976C398.885 591.824 398.799 591.686 398.685 591.572C398.572 591.459 398.434 591.373 398.282 591.322C398.13 591.27 397.969 591.254 397.81 591.274Z" fill="#3A3F3F"/>
<path d="M358.794 591.274H397.922V601.22H358.794C358.631 601.243 358.465 601.228 358.309 601.176C358.153 601.124 358.011 601.036 357.895 600.92C357.778 600.804 357.691 600.662 357.638 600.506C357.586 600.35 357.571 600.184 357.595 600.021V592.448C357.576 592.287 357.594 592.124 357.648 591.971C357.702 591.818 357.79 591.68 357.906 591.566C358.022 591.453 358.162 591.368 358.316 591.317C358.47 591.266 358.633 591.251 358.794 591.274Z" fill="#3A3F3F"/>
</g>
</mask>
<g mask="url(#mask1_648_11779)">
<rect x="-32.8164" y="493.832" width="550.321" height="166.611" fill="#3A3F3F"/>
</g>
<defs>
<clipPath id="clip0_648_11779">
<rect width="348.706" height="456.373" fill="white" transform="translate(64.8828)"/>
</clipPath>
<clipPath id="clip1_648_11779">
<rect width="398.97" height="85.7921" fill="white" transform="translate(0 519.076)"/>
</clipPath>
</defs>
</svg>
